<?xml version="1.0" encoding="UTF-8"?>
<svg width="250px" height="250px" viewBox="0 0 250 250" version="1.1" xmlns="http://www.w3.org/2000/svg" xmlns:xlink="http://www.w3.org/1999/xlink">
    <!-- Generator: Sketch 52.3 (67297) - http://www.bohemiancoding.com/sketch -->
    <title>counselling</title>
    <desc>Created with Sketch.</desc>
    <g id="counselling" stroke="none" stroke-width="1" fill="none" fill-rule="evenodd">
        <g>
            <circle id="Oval" fill="#BA0E82" cx="125" cy="125" r="125"></circle>
            <g id="meeting" transform="translate(53.000000, 70.000000)" fill="#FFFFFF" stroke="#BA0E82">
                <g id="Group-5" transform="translate(0.569006, 0.000000)">
                    <path d="M95.7825285,31.7446036 L48.121311,31.4337383 C44.967722,31.4337383 42.1116414,33.82807 42.1116414,37.1229605 C42.1116414,40.1087459 44.6408346,42.8121826 48.121311,42.8121826 L66.0911902,42.9251925 L65.79331,103.760439 C65.79331,106.746225 68.3225032,109.450013 71.8029796,109.450013 C74.9569405,109.450013 77.8126493,107.055682 77.8126493,103.760439 L78.1105296,43.0103901 L95.8115356,43.1216397 C99.2934995,43.1216397 101.821205,40.4470716 101.821205,37.4324176 C101.821205,34.4195238 99.2339978,31.7446036 95.7825285,31.7446036 Z" id="Fill-1"></path>
                    <path d="M11.3790237,0.0870396775 C5.07147377,0.0870396775 0.014574751,4.87570302 0.014574751,10.8455137 C-0.313800145,16.8167325 5.07147377,21.8870405 11.3790237,21.8870405 C17.6865737,21.8870405 22.7431008,16.8167325 22.7431008,11.1271583 C23.0409811,5.15593946 17.6865737,0.0870396775 11.3790237,0.0870396775 Z" id="Fill-3"></path>
                    <path d="M132.524816,1.2695952 C126.217266,1.2695952 121.159251,6.05825854 121.159251,12.0294774 C120.832364,17.999288 126.217266,23.069596 132.524816,23.069596 C138.830878,23.069596 143.889265,18.2812847 143.889265,12.3100659 C144.216152,6.36771561 138.830878,1.2695952 132.524816,1.2695952 Z" id="Fill-4"></path>
                </g>
                <path d="M40.3470481,110 C37.0062522,110 34.2849025,107.426964 34.2849025,104.266525 L34.2849025,70.1404953 L8.5024886,70.1404953 C5.16169271,70.1404953 2.4399734,67.5674594 2.4399734,64.4070202 L2.4399734,36.5745966 C2.4399734,33.4141574 5.16169271,30.8411215 8.5024886,30.8411215 C11.8432845,30.8411215 14.5631558,33.4141574 14.5631558,36.5745966 L14.5631558,58.6735451 L40.3470481,58.6735451 C43.687844,58.6735451 46.4077153,61.2465811 46.4077153,64.4070202 L46.4077153,104.266525 C46.4077153,107.426964 43.687844,110 40.3470481,110 Z" id="Fill-6"></path>
                <path d="M102.050506,110 C105.391302,110 108.111173,107.426964 108.111173,104.266525 L108.111173,70.1404953 L133.895066,70.1404953 C137.235862,70.1404953 139.956102,67.5674594 139.956102,64.4070202 L139.956102,36.5745966 C139.956102,33.4141574 137.235862,30.8411215 133.895066,30.8411215 C130.55427,30.8411215 127.83292,33.4141574 127.83292,36.5745966 L127.83292,58.6735451 L102.050506,58.6735451 C98.7097102,58.6735451 95.9883605,61.2465811 95.9883605,64.4070202 L95.9883605,104.266525 C95.9883605,107.426964 98.7097102,110 102.050506,110 Z" id="Fill-7"></path>
            </g>
        </g>
    </g>
</svg>