<?xml version="1.0" encoding="UTF-8"?>
<svg width="251px" height="250px" viewBox="0 0 251 250" version="1.1" xmlns="http://www.w3.org/2000/svg" xmlns:xlink="http://www.w3.org/1999/xlink">
    <!-- Generator: Sketch 52.3 (67297) - http://www.bohemiancoding.com/sketch -->
    <title>hiv/sti</title>
    <desc>Created with Sketch.</desc>
    <g id="hiv/sti" stroke="none" stroke-width="1" fill="none" fill-rule="evenodd">
        <g id="test-tube">
            <g transform="translate(0.139535, 0.000000)">
                <circle id="Oval" fill="#BA0E82" cx="125" cy="125" r="125"></circle>
                <path d="M194.944214,70.0003713 L158.777208,70.0003713 C157.930679,69.9882429 157.113086,70.2736837 156.508974,70.7935131 C155.904861,71.3136246 155.562134,72.024406 155.559562,72.7667777 L155.559562,84.0337913 C155.533199,84.7885734 155.863387,85.5188167 156.472643,86.0533131 C157.080614,86.5875273 157.914282,86.877481 158.774636,86.8543524 L158.774636,98.7689669 L143.66379,98.7689669 L143.66379,86.8543524 C144.524144,86.877481 145.358134,86.5875273 145.965783,86.0533131 C146.575039,85.5188167 146.905227,84.7885734 146.878864,84.0337913 L146.878864,72.7667777 C146.893974,72.0320215 146.569895,71.3223683 145.978321,70.8014107 C145.388034,70.2790427 144.580729,69.9916275 143.742881,70.0003713 L107.577161,70.0003713 C106.739312,69.9916275 105.932007,70.2790427 105.34172,70.8014107 C104.750146,71.3223683 104.426067,72.0320215 104.441178,72.7667777 L104.441178,84.0337913 C104.414814,84.7885734 104.745002,85.5188167 105.354259,86.0533131 C105.961908,86.5875273 106.795898,86.877481 107.656251,86.8543524 L107.656251,98.7689669 L92.5454055,98.7689669 L92.5454055,86.8543524 C93.4057592,86.877481 94.2397493,86.5875273 94.8473982,86.0533131 C95.4566546,85.5188167 95.7868427,84.7885734 95.7604791,84.0337913 L95.7604791,72.7667777 C95.757907,72.024406 95.4151802,71.3136246 94.8110679,70.7935131 C94.2069555,70.2736837 93.3893623,69.9882429 92.5428334,70.0003713 L56.3758273,70.0003713 C54.6001421,70.0003713 53,71.21011 53,72.7667777 L53,84.0337913 C53.0591574,85.5695868 54.464466,86.8024541 56.2150736,86.8543524 L56.2150736,141.221797 C56.2150736,149.968639 64.4083672,157.086325 74.3802395,157.086325 C84.3521119,157.086325 92.5454055,149.968639 92.5454055,141.221797 L92.5454055,115.692334 L107.656251,115.692334 L107.656251,141.221797 C107.628602,146.53658 110.649164,151.506691 115.692649,154.449665 L115.692649,163.077761 L77.4345595,163.077761 C75.6588743,163.077761 74.2194859,164.340244 74.2194859,165.898322 L74.2194859,177.180567 C74.2194859,178.738363 75.6588743,180 77.4345595,180 L172.92096,180 C174.696967,180 176.136033,178.738363 176.136033,177.180567 L176.136033,165.898322 C176.136033,164.340244 174.696967,163.077761 172.92096,163.077761 L134.983091,163.077761 L134.983091,154.80985 C140.395989,151.932032 143.69144,146.773508 143.66379,141.221797 L143.66379,115.692334 L158.774636,115.692334 L158.774636,141.221797 C158.774636,149.944382 166.834825,157.016939 176.779048,157.016939 C186.723271,157.016939 194.78346,149.944382 194.78346,141.221797 L194.78346,86.8543524 C195.643814,86.877481 196.477804,86.5875273 197.085453,86.0533131 C197.69471,85.5188167 198.024898,84.7885734 197.998534,84.0337913 L197.998534,72.7667777 C197.998534,71.21011 196.720221,70.0003713 194.944214,70.0003713 Z M162,81.7857143 L192,81.7857143 L192,75.8928571 L162,75.8928571 L162,81.7857143 Z M111,81.7857143 L141,81.7857143 L141,75.8928571 L111,75.8928571 L111,81.7857143 Z M60,81.7857143 L90,81.7857143 L90,75.8928571 L60,75.8928571 L60,81.7857143 Z M74.5,151.517857 C68.1800411,151.516724 63.0444247,146.930786 63,141.247102 L63,86.6964286 L86,86.6964286 L86,141.247102 C85.9555753,146.930786 80.8199589,151.516724 74.5,151.517857 Z M93,110.267857 L108,110.267857 L108,104.375 L93,104.375 L93,110.267857 Z M81,174.107143 L170,174.107143 L170,168.214286 L81,168.214286 L81,174.107143 Z M128,162.321429 L122,162.321429 L122,156.428571 C123.977,156.775893 126.0101,156.807828 128,156.522264 L128,162.321429 Z M125.499361,151.517857 C122.437027,151.51219 119.504394,150.425212 117.347088,148.498063 C115.19074,146.572332 113.986379,143.962281 114.000116,141.247102 L114,86.6964286 L137,86.6964286 L136.999884,141.247102 C137.01362,143.962281 135.80958,146.572332 133.651954,148.498063 C131.494328,150.425212 128.561695,151.51219 125.499361,151.517857 Z M144,110.267857 L159,110.267857 L159,104.375 L144,104.375 L144,110.267857 Z M188,140.478412 C188,146.032837 182.851514,150.535714 176.5,150.535714 C170.148486,150.535714 165,146.032837 165,140.478412 L165,86.6964286 L188,86.6964286 L188,140.478412 Z" id="Fill-1" fill="#FFFFFF"></path>
            </g>
        </g>
    </g>
</svg>