<?xml version="1.0" encoding="UTF-8"?>
<svg width="200px" height="200px" viewBox="0 0 200 200" version="1.1" xmlns="http://www.w3.org/2000/svg" xmlns:xlink="http://www.w3.org/1999/xlink">
    <!-- Generator: Sketch 52.3 (67297) - http://www.bohemiancoding.com/sketch -->
    <title>mental health</title>
    <desc>Created with Sketch.</desc>
    <g id="mental-health" stroke="none" stroke-width="1" fill="none" fill-rule="evenodd">
        <g>
            <circle id="Oval" fill="#00A3D7" cx="100" cy="100" r="100"></circle>
            <g id="head" transform="translate(56.000000, 50.000000)" fill="#FFFFFF">
                <path d="M85.2887838,25.6017153 C78.3508493,10.9123499 63.8028816,1.14236707 47.3827578,0.146397942 L45.7504563,0 L44.2586362,0.036535163 C39.1915515,0.220068611 34.2259304,1.48413379 29.7049204,3.74511149 C17.6853566,9.66243568 10.1092899,21.77753 10.1537945,35.0102058 L10.1537945,41.2149228 L0.24223553,57.4825043 C-0.0725194374,57.9963979 -0.0809674816,58.6379931 0.219417101,59.1605489 C0.52049843,59.6828473 1.08320785,60.0058319 1.6932089,60.0058319 L12.2852274,60.0058319 L11.2584852,75.0277873 C10.4749944,79.4710978 13.448706,83.7137221 17.9466363,84.5696398 C18.0571576,84.5910806 18.1715111,84.6028302 18.2841226,84.6028302 C18.3446524,84.6028302 18.4062274,84.5994854 18.4651024,84.5933962 L28.7683197,83.4928816 L28.7683197,98.3332762 C28.7683197,99.2536021 29.5255954,100 30.4608026,100 L71.0745575,100 C72.0090679,100 72.766692,99.2536021 72.766692,98.3332762 L72.766692,81.7729846 L85.9892747,49.5989708 C88.8946181,41.8078902 88.6431799,33.2155232 85.2887838,25.6017153 Z M82.8266579,48.413036 L69.5047889,80.8359348 C69.4122959,81.0737564 69.3778941,81.3280446 69.4020189,81.5816467 C69.4020189,81.6164666 69.3819875,81.6469983 69.3819875,81.6818182 L69.3819875,96.6669811 L32.1530243,96.6669811 L32.1530243,81.6691252 C32.1530243,81.6345626 32.1339508,81.6037736 32.1326444,81.5692967 C32.1309026,81.5343911 32.1472761,81.4958834 32.1421376,81.4584048 C32.1227158,81.3628645 32.0914493,81.2704117 32.0530412,81.1816467 C32.0346645,81.108319 32.0104526,81.036964 31.9822344,80.9665523 C31.9138662,80.8248714 31.8257279,80.6925386 31.7186032,80.5753002 C31.7012716,80.5444254 31.6821982,80.5150086 31.6620797,80.4861921 C31.6433546,80.4714408 31.6233232,80.4580617 31.6042498,80.4419383 C31.2535253,80.1022298 30.7684159,79.9333619 30.2788648,79.9802744 L18.369474,81.2493139 C15.7427419,80.597084 14.0944153,78.0345626 14.6173231,75.4167238 L15.7852434,58.4540309 C15.8509117,57.5354202 15.1473725,56.7377358 14.2148652,56.6731561 L4.68773575,56.6731561 L13.3007346,42.5292453 C13.3167597,42.4950257 13.3289528,42.4598628 13.3394911,42.4233276 C13.3888729,42.32247 13.4265843,42.2166381 13.4531477,42.1087479 C13.4865044,41.9995712 13.5096712,41.887307 13.5205579,41.7744425 C13.5205579,41.7362779 13.5436376,41.7027444 13.5436376,41.6632075 L13.5436376,35.0102058 C13.4973911,23.0337907 20.3471002,12.0651801 31.2232168,6.70222985 C35.3067575,4.66037736 39.7913626,3.51698113 44.3664576,3.34914237 L45.7201478,3.34914237 C61.4333359,3.78602058 75.5529789,12.9170669 82.2016768,26.9440823 C85.1969004,33.7566038 85.4214268,41.4427959 82.8266579,48.413036 Z" id="Fill-1"></path>
                <path d="M47.0000851,17.4933611 C40.7955713,12.3930992 31.5369616,12.9388421 26.0188493,18.7291751 C20.4997825,24.5204316 20.687827,33.4924462 26.4432728,39.0627188 L45.5174232,57.5218452 C45.9066154,57.8977362 46.4591209,58.0662448 47.0000851,57.9757354 C47.0957127,57.9918558 47.1926419,58 47.2902654,58 C47.7369904,58 48.1654923,57.8275452 48.4823998,57.5218452 L67.556637,39.0627188 C73.311996,33.4924462 73.5004744,24.5204316 67.9809737,18.7291751 C62.462254,12.9388421 53.2032972,12.3930992 47.0000851,17.4933611 Z M65.1726285,36.7560731 L47.0000851,54.3411712 L28.8268474,36.7560731 C24.2171974,32.2966813 24.2171974,25.0661746 28.8268474,20.6057753 C33.436237,16.1463835 40.9104633,16.1463835 45.5191587,20.6057753 L45.8099465,20.8865391 C46.467625,21.5234631 47.535322,21.5234631 48.1943021,20.8865391 L48.4837882,20.6057753 C53.0930911,16.1463835 60.5660157,16.1463835 65.1756657,20.6057753 C69.7847083,25.0661746 69.7847083,32.2966813 65.1756657,36.7560731 L65.1726285,36.7560731 Z" id="Fill-3"></path>
            </g>
        </g>
    </g>
</svg>