<?xml version="1.0" encoding="UTF-8"?>
<svg width="200px" height="200px" viewBox="0 0 200 200" version="1.1" xmlns="http://www.w3.org/2000/svg" xmlns:xlink="http://www.w3.org/1999/xlink">
    <!-- Generator: Sketch 52.3 (67297) - http://www.bohemiancoding.com/sketch -->
    <title>primary care</title>
    <desc>Created with Sketch.</desc>
    <defs>
        <filter x="-11.4%" y="-12.0%" width="122.9%" height="124.0%" filterUnits="objectBoundingBox" id="filter-1">
            <feOffset dx="0" dy="2" in="SourceAlpha" result="shadowOffsetOuter1"></feOffset>
            <feGaussianBlur stdDeviation="2" in="shadowOffsetOuter1" result="shadowBlurOuter1"></feGaussianBlur>
            <feColorMatrix values="0 0 0 0 0   0 0 0 0 0   0 0 0 0 0  0 0 0 0.5 0" type="matrix" in="shadowBlurOuter1" result="shadowMatrixOuter1"></feColorMatrix>
            <feMerge>
                <feMergeNode in="shadowMatrixOuter1"></feMergeNode>
                <feMergeNode in="SourceGraphic"></feMergeNode>
            </feMerge>
        </filter>
    </defs>
    <g id="primary-care" stroke="none" stroke-width="1" fill="none" fill-rule="evenodd">
        <g id="Primary-Care">
            <circle id="Oval" fill="#00A3D7" cx="100" cy="100" r="100"></circle>
            <g id="stethoscope" filter="url(#filter-1)" transform="translate(48.000000, 50.000000)" fill="#FFFFFF">
                <g id="Group-3">
                    <path d="M92.5571726,66.5242888 C87.7348129,66.5242888 83.8253638,62.6056893 83.8253638,57.7715536 C83.8253638,52.9376368 87.7348129,49.0188184 92.5571726,49.0188184 C97.3795322,49.0188184 101.288981,52.9376368 101.288981,57.7715536 C101.283306,62.6032823 97.377131,66.5185996 92.5571726,66.5242888 Z M22.7027027,66.5242888 L22.7027027,62.809628 C22.8424116,62.8271335 22.9856133,62.8341357 23.1270686,62.84814 C23.3017048,62.8673961 23.476341,62.8814004 23.6509771,62.8971554 C24.4770062,62.9706783 25.3100208,63.0196937 26.1500208,63.0214442 L26.2373389,63.0214442 C27.0755925,63.0214442 27.9068607,62.9706783 28.7276507,62.8971554 C28.9022869,62.8814004 29.0874012,62.8673961 29.2672765,62.84814 C29.4052391,62.8323851 29.5484407,62.8271335 29.6864033,62.809628 L29.6864033,66.5242888 C29.6864033,67.5746171 29.5117672,70.0253829 27.9400416,70.0253829 L24.4490644,70.0253829 C22.8773389,70.0253829 22.7027027,67.5746171 22.7027027,66.5242888 Z M3.49272349,38.6555799 L3.49272349,38.5155361 L8.73180873,38.5155361 L8.73180873,38.7150985 C8.86278586,46.3238512 13.9126091,52.9636761 21.1973389,55.1054705 C25.0146674,56.3170678 29.1120686,56.3170678 32.9293971,55.1054705 C40.2176195,52.9665208 45.272027,46.3262582 45.4054054,38.7150985 L45.4054054,38.5155361 L48.8981289,38.5155361 L48.8981289,38.6555799 C48.8981289,48.3938731 41.4097297,56.9628009 31.0852391,59.0354486 C28.6608524,59.5221007 26.1777443,59.6442013 23.7173389,59.3978118 C22.9074636,59.319256 22.1023909,59.1969365 21.3056133,59.0319475 C10.9811227,56.9628009 3.49272349,48.3938731 3.49272349,38.6555799 Z M15.7172557,3.50459519 C16.681684,3.50459519 17.4636175,4.28840263 17.4636175,5.25514223 C17.4636175,6.22188184 16.681684,7.00568928 15.7172557,7.00568928 C14.7528274,7.00568928 13.970894,6.22188184 13.970894,5.25514223 C13.970894,4.28840263 14.7528274,3.50459519 15.7172557,3.50459519 Z M36.6735967,7.00568928 C35.7091684,7.00568928 34.9272349,6.22188184 34.9272349,5.25514223 C34.9272349,4.28840263 35.7091684,3.50459519 36.6735967,3.50459519 C37.6380249,3.50459519 38.4199584,4.28840263 38.4199584,5.25514223 C38.4199584,6.22188184 37.6380249,7.00568928 36.6735967,7.00568928 Z M94.3035343,45.6577681 L94.3035343,42.4752735 C94.3035343,33.6945295 87.644657,26.5452954 79.4594595,26.5452954 C71.5100208,26.5452954 64.8546362,33.4774617 64.6153846,41.9991247 L64.7166736,41.9991247 L64.6153846,42.0166302 L64.6153846,76.5146608 C64.6153846,87.5431072 56.3900208,96.4989059 46.2785863,96.4989059 C36.1671518,96.4989059 27.9417879,87.5308534 27.9417879,76.5146608 L27.9417879,73.526477 C30.4740125,73.526477 33.1808732,71.6866521 33.1808732,66.5242888 L33.1808732,62.121663 C44.3890229,59.2490153 52.3908524,49.6017505 52.3908524,38.6643326 L52.3908524,35.014442 L48.8981289,35.014442 L48.8247817,12.2310722 C48.7994595,8.01378556 45.7804366,4.41291028 41.6402495,3.66214442 C40.7472037,0.919693654 37.8052391,-0.577680525 35.0691268,0.31750547 C32.3332328,1.21269147 30.8394387,4.16170678 31.7324844,6.90437637 C32.6257484,9.64682713 35.5677131,11.1442013 38.3036071,10.2490153 C39.7685863,9.76958425 40.9467256,8.66477024 41.5214969,7.23150985 C43.7588046,7.86958425 45.3087006,9.91006565 45.3268191,12.2415755 L45.4054054,35.014442 L41.9126819,35.014442 L41.9126819,38.7150985 C41.7734096,44.8043764 37.700894,50.0956236 31.8606237,51.77593 C28.7357277,52.7698031 25.3805301,52.7698031 22.2556341,51.77593 C16.422131,50.0899344 12.3587838,44.7993435 12.2245322,38.7150985 L12.2245322,35.014442 L6.98544699,35.014442 L6.98544699,12.2573304 C6.99548857,9.89124726 8.58293139,7.8238512 10.8623701,7.20875274 C11.9252495,9.92100656 14.9802911,11.2557987 17.6860603,10.190372 C20.3916112,9.12472648 21.7234304,6.06236324 20.6605509,3.35032823 C19.5974532,0.638074398 16.5424116,-0.696717724 13.8368607,0.368708972 C12.3705717,0.946170678 11.2395842,2.15142232 10.7540956,3.65339168 C6.56872141,4.3702407 3.50429314,8.00109409 3.49272349,12.2573304 L3.49272349,35.014442 L0,35.014442 L0,38.6555799 C0,49.6052516 8.00706861,59.2560175 19.2099792,62.121663 L19.2099792,66.5242888 C19.2099792,71.6866521 21.9168399,73.526477 24.4490644,73.526477 L24.4490644,76.5146608 C24.4490644,89.468709 34.2409148,100 46.2785863,100 C58.3162578,100 68.1081081,89.4564551 68.1081081,76.5146608 L68.1081081,42.1006565 C68.2827443,35.4573304 73.3786279,30.0516411 79.4594595,30.0516411 C85.71842,30.0516411 90.8108108,35.6253829 90.8108108,42.4805252 L90.8108108,45.6577681 C84.1285759,46.6245077 79.4935135,52.8382932 80.4579418,59.5365427 C81.4225884,66.2345733 87.6212994,70.8809628 94.3035343,69.9140044 C100.985769,68.9472648 105.620832,62.7334792 104.656403,56.0354486 C103.88211,50.6582057 99.667921,46.4339168 94.3035343,45.6577681 Z" id="Fill-1"></path>
                </g>
                <path d="M92.5,60.8333333 C91.2113993,60.8333333 90.1666667,59.7886007 90.1666667,58.5 C90.1666667,57.2113993 91.2113993,56.1666667 92.5,56.1666667 C93.7886007,56.1666667 94.8333333,57.2113993 94.8333333,58.5 C94.8333333,59.7886007 93.7886007,60.8333333 92.5,60.8333333 Z M92.5,53.5 C89.7385382,53.5 87.5,55.7385382 87.5,58.5 C87.5,61.2614618 89.7385382,63.5 92.5,63.5 C95.2614618,63.5 97.5,61.2614618 97.5,58.5 C97.5,55.7385382 95.2614618,53.5 92.5,53.5 Z" id="Fill-4" stroke="#00A3D7"></path>
            </g>
        </g>
    </g>
</svg>