<?xml version="1.0" encoding="UTF-8"?>
<svg width="250px" height="250px" viewBox="0 0 250 250" version="1.1" xmlns="http://www.w3.org/2000/svg" xmlns:xlink="http://www.w3.org/1999/xlink">
    <!-- Generator: Sketch 52.3 (67297) - http://www.bohemiancoding.com/sketch -->
    <title>life resources</title>
    <desc>Created with Sketch.</desc>
    <g id="life-resources" stroke="none" stroke-width="1" fill="none" fill-rule="evenodd">
        <g>
            <circle id="Oval" fill="#BA0E82" cx="125" cy="125" r="125"></circle>
            <g id="briefcase" transform="translate(53.000000, 70.000000)" fill="#FFFFFF" stroke="#FFFFFF" stroke-width="2">
                <path d="M132.878078,55 L84.5757288,55 L84.5757288,52.2328774 C84.5757288,50.7032547 83.2254276,49.4654953 81.5567259,49.4654953 L63.4432741,49.4654953 C61.7745724,49.4654953 60.4242712,50.7032547 60.4242712,52.2328774 L60.4242712,55 L12.121922,55 C8.79329223,55 6.08391608,52.5164387 6.08391608,49.4654953 L6.08391608,27.327217 C6.08391608,24.2760142 8.79329223,21.7924528 12.121922,21.7924528 L132.878078,21.7924528 C136.206708,21.7924528 138.916084,24.2760142 138.916084,27.327217 L138.916084,49.4654953 C138.916084,52.5164387 136.206708,55 132.878078,55 Z M65.9090909,66.4150943 L78.0769231,66.4150943 L78.0769231,55 L65.9090909,55 L65.9090909,66.4150943 Z M132.878078,104.811321 L12.121922,104.811321 C8.79329223,104.811321 6.08391608,102.336197 6.08391608,99.2956196 L6.08391608,59.1509434 C7.86724201,60.101124 9.91264694,60.6851941 12.121922,60.6851941 L60.4242712,60.6851941 L60.4242712,68.9588752 C60.4242712,70.4833009 61.7745724,71.7165965 63.4432741,71.7165965 L81.5567259,71.7165965 C83.2254276,71.7165965 84.5757288,70.4833009 84.5757288,68.9588752 L84.5757288,60.6851941 L132.878078,60.6851941 C135.087353,60.6851941 137.132758,60.101124 138.916084,59.1509434 L138.916084,99.2956196 C138.916084,102.336197 136.206708,104.811321 132.878078,104.811321 Z M47.6573427,10.8963602 C47.6573427,7.74983185 50.3874156,5.18867925 53.7411874,5.18867925 L90.2448265,5.18867925 C93.5985984,5.18867925 96.3286713,7.74983185 96.3286713,10.8963602 L96.3286713,16.6037736 L47.6573427,16.6037736 L47.6573427,10.8963602 Z M132.916572,16.4999871 L102.708428,16.4999871 L102.708428,11.0000773 C102.708428,4.93323833 97.2890527,0 90.625,0 L54.375,0 C47.7109473,0 42.2915723,4.93323833 42.2915723,11.0000773 L42.2915723,16.4999871 L12.0834277,16.4999871 C5.4190918,16.4999871 0,21.4332254 0,27.5000645 L0,98.9999227 C0,105.066504 5.4190918,110 12.0834277,110 L132.916572,110 C139.580908,110 145,105.066504 145,98.9999227 L145,27.5000645 C145,21.4332254 139.580908,16.4999871 132.916572,16.4999871 Z" id="Fill-1"></path>
            </g>
        </g>
    </g>
</svg>