<?xml version="1.0" encoding="UTF-8"?>
<svg width="251px" height="265px" viewBox="0 0 251 265" version="1.1" xmlns="http://www.w3.org/2000/svg" xmlns:xlink="http://www.w3.org/1999/xlink">
    <!-- Generator: Sketch 52.3 (67297) - http://www.bohemiancoding.com/sketch -->
    <title>workshops</title>
    <desc>Created with Sketch.</desc>
    <g id="workshops" stroke="none" stroke-width="1" fill="none" fill-rule="evenodd">
        <g transform="translate(-1.000000, 4.000000)" id="workshop">
            <g>
                <circle id="Oval" fill="#BA0E82" cx="125" cy="125" r="125"></circle>
                <g id="Group-9" transform="translate(68.000000, 58.000000)" fill="#FFFFFF" stroke="#BA0E82">
                    <g id="body" transform="translate(22.000000, 0.000000)">
                        <path d="M9.46281179,123.1724 C9.46281179,125.215933 11.0551974,126.872645 13.0193852,126.872645 C14.983573,126.872645 16.5759587,125.21624 16.5759587,123.1724 L16.5759587,84.0173057 L9.46281179,84.0173057 L9.46281179,123.1724" id="Fill-1"></path>
                        <path d="M54.5127421,123.1724 C54.5127421,125.215933 56.1047672,126.872645 58.0694629,126.872645 C60.0338639,126.872645 61.625889,125.21624 61.625889,123.1724 L61.625889,84.0173057 L54.5130367,84.0173057 L54.5130367,123.1724 L54.5127421,123.1724" id="Fill-2"></path>
                        <path d="M21.3180566,127.265148 C21.3180566,131.20527 24.3255896,134.399411 28.0358827,134.399411 C31.7464678,134.399411 34.7540007,131.20558 34.7540007,127.265148 L34.7540007,82.1158972 L21.3183486,82.1158972 L21.3183486,127.265148 L21.3180566,127.265148" id="Fill-3" stroke-width="3"></path>
                        <path d="M37.1250497,127.265148 C37.1250497,131.20527 40.1325827,134.399411 43.8431678,134.399411 C47.5531689,134.399411 50.5609938,131.20558 50.5609938,127.265148 L50.5609938,82.1158972 L37.1253417,82.1158972 L37.1253417,127.265148 L37.1250497,127.265148" id="Fill-4" stroke-width="3"></path>
                        <path d="M34.477293,17.1662884 C40.7028909,17.1662884 45.7498604,22.0452778 45.7498604,28.0642796 C45.7498604,34.0830071 40.7028909,38.9622708 34.477293,38.9622708 C28.2516951,38.9622708 23.2047256,34.0830071 23.2047256,28.0642796 C23.2047256,22.0452778 28.2516951,17.1662884 34.477293,17.1662884" id="Fill-5"></path>
                        <path d="M5.45999402,73.3414349 C5.46453266,73.3414349 5.4690713,73.3414349 5.47360994,73.3414349 L26.3933437,73.2907007 C29.397357,73.2835704 31.8263813,70.923468 31.8187223,68.0192749 C31.811347,65.1194697 29.3777842,62.7741762 26.3802951,62.7741762 C26.3754728,62.7741762 26.3706504,62.7741762 26.3663955,62.7741762 L14.0575995,62.803794 C16.5135719,57.7813775 15.9930465,58.8456998 18.4163974,53.8899234 C18.4308643,53.8605798 18.4453312,53.8312362 18.4609328,53.8021668 C18.8021819,53.1527684 19.5592841,52.8146315 20.2917074,52.9846598 C21.0241307,53.1544138 21.5401175,53.7881806 21.5401175,54.5162857 L21.5401175,57.9684086 L26.3539142,57.9568906 C26.3627078,57.9568906 26.3715014,57.9568906 26.3805787,57.9568906 C32.1245133,57.9568906 36.7876839,62.4511224 36.8021508,68.0074827 C36.8072568,69.9644535 36.2331186,71.7908865 35.2383051,73.3395152 L50.3497122,73.3395152 L50.3497122,50.0269901 C50.9193118,49.3734781 49.1974646,52.440295 73.3291382,7.6902181 C74.7179626,5.1151121 73.6842869,1.93887379 71.020388,0.596747191 C68.3567727,-0.745927887 65.0719309,0.253673963 63.6831066,2.82850572 L42.8935751,41.3818739 C40.3227183,41.3818739 23.610589,41.3818739 21.6683341,41.3818739 C16.0991372,41.3818739 10.9622459,44.5271231 8.58172843,49.395143 C7.55429344,51.4969122 1.40868908,64.0647458 0.54265953,65.836331 C-1.15734541,69.3128612 1.46655676,73.3419834 5.45999402,73.3414349" id="Fill-7"></path>
                    </g>
                    <path d="M111.682163,75.5597015 C109.60502,75.5597015 3.97084908,75.5597015 3.31698126,75.5597015 C1.48518143,75.5597015 0,76.8994296 0,78.5518296 C0,80.2044869 1.48518143,81.5444723 3.31698126,81.5444723 L6.88786408,81.5444723 L6.88786408,129.399993 C6.88786408,131.936366 9.16727238,133.992537 11.9793034,133.992537 C14.7910491,133.992537 17.0704574,131.936366 17.0704574,129.399993 L17.0704574,81.5444723 C20.6989673,81.5444723 94.4690642,81.5444723 98.2290894,81.5444723 L98.2290894,129.399993 C98.2290894,131.936366 100.508498,133.992537 103.320243,133.992537 C106.131989,133.992537 108.411397,131.936366 108.411397,129.399993 L108.411397,81.5444723 L111.682733,81.5444723 C113.514819,81.5444723 115,80.2047442 115,78.5518296 C114.999429,76.8996869 113.514248,75.5597015 111.682163,75.5597015" id="Fill-8"></path>
                </g>
            </g>
        </g>
    </g>
</svg>