<?xml version="1.0" encoding="UTF-8"?>
<svg width="30px" height="27px" viewBox="0 0 30 27" version="1.1" xmlns="http://www.w3.org/2000/svg" xmlns:xlink="http://www.w3.org/1999/xlink">
    <!-- Generator: Sketch 52.3 (67297) - http://www.bohemiancoding.com/sketch -->
    <title>Shape</title>
    <desc>Created with Sketch.</desc>
    <g id="Symbols" stroke="none" stroke-width="1" fill="none" fill-rule="evenodd">
        <g id="Footer-Nav-V2" transform="translate(-1225.000000, -218.000000)" fill="#000000" fill-rule="nonzero">
            <g id="Footer-Nav" transform="translate(44.000000, 215.000000)">
                <path d="M1193.78689,16.2437047 L1193.78689,27.2594964 C1193.78689,28.3734528 1194.77049,29.3636364 1195.87705,29.3636364 C1196.98361,29.3636364 1197.96721,28.3734528 1197.96721,27.2594964 L1197.96721,15.9961588 L1203.0082,21.1946223 C1203.86885,22.0610329 1205.22131,22.0610329 1205.95902,21.1946223 C1206.81967,20.3282117 1206.81967,18.9667093 1205.95902,18.1002988 L1197.47541,9.43619292 C1196.61475,8.56978233 1195.2623,8.56978233 1194.52459,9.43619292 L1185.79508,18.2240717 C1184.93443,19.0904823 1184.93443,20.4519846 1185.79508,21.1946223 C1186.65574,22.0610329 1187.88525,22.0610329 1188.7459,21.1946223 L1193.78689,16.2437047 M1208.90984,3 C1210.01639,3 1211,3.99018353 1211,5.10413999 C1211,6.21809646 1210.01639,7.20827998 1208.90984,7.20827998 L1183.09016,7.20827998 C1181.98361,7.20827998 1181,6.21809646 1181,5.10413999 C1181,3.99018353 1181.98361,3 1183.09016,3 L1208.90984,3" id="Shape"></path>
            </g>
        </g>
    </g>
</svg>