<?xml version="1.0" encoding="UTF-8"?>
<svg width="73px" height="73px" viewBox="0 0 73 73" version="1.1" xmlns="http://www.w3.org/2000/svg" xmlns:xlink="http://www.w3.org/1999/xlink">
    <!-- Generator: Sketch 52.3 (67297) - http://www.bohemiancoding.com/sketch -->
    <title>ig </title>
    <desc>Created with Sketch.</desc>
    <defs>
        <polygon id="path-1" points="0.109049769 0.506490684 72.1963997 0.506490684 72.1963997 72.8781794 0.109049769 72.8781794"></polygon>
    </defs>
    <g id="Page-1" stroke="none" stroke-width="1" fill="none" fill-rule="evenodd">
        <g id="instagram">
            <g id="ig-">
                <rect id="Rectangle" fill="#2C2C2C" x="15" y="15" width="44" height="44"></rect>
                <path d="M36.1891906,44.3225806 C40.1526478,44.3225806 43.3801893,41.1135586 43.3801893,37.1585876 C43.3801893,35.6018245 42.8721002,34.1603772 42.0240795,32.9837959 C40.7167895,31.1819868 38.5922173,30 36.1891906,30 C33.7952046,30 31.6688243,31.1747795 30.3633425,32.9837959 C29.5080892,34.1603772 29.0072326,35.6018245 29,37.1585876 C29,41.1135586 32.2275416,44.3225806 36.1891906,44.3225806 Z" id="Fill-1" fill="#FFFFFF"></path>
                <g id="Group-5">
                    <mask id="mask-2" fill="white">
                        <use xlink:href="#path-1"></use>
                    </mask>
                    <g id="Clip-3"></g>
                    <polygon id="Fill-2" fill="#F1F1F1" mask="url(#mask-2)" points="51.8767927 27.8278371 51.8767927 20.8535697 50.9680446 20.8535697 44.9121475 20.8754326 44.9412274 27.8497"></polygon>
                    <path d="M36.0936561,0.506490684 C16.1938907,0.506490684 0,16.7415212 0,36.6896022 C0,56.6449707 16.1938907,72.8781794 36.0936561,72.8781794 C56.0006915,72.8781794 72.1963997,56.6449707 72.1963997,36.6896022 C72.1963997,16.7415212 56.0006915,0.506490684 36.0936561,0.506490684 Z M56.6259102,32.4682392 L56.6259102,49.3208968 C56.6259102,53.7062316 53.0690702,57.2717074 48.6889045,57.2717074 L23.5002253,57.2717074 C19.125512,57.2717074 15.5686721,53.7062316 15.5686721,49.3208968 L15.5686721,24.0710609 C15.5686721,19.6802603 19.125512,16.1147845 23.5002253,16.1147845 L48.6889045,16.1147845 C53.0690702,16.1147845 56.6259102,19.6802603 56.6259102,24.0710609 L56.6259102,32.4682392 Z" id="Fill-4" fill="#FFFFFF" mask="url(#mask-2)"></path>
                </g>
                <path d="M47.5067475,37.2007269 C47.5067475,43.3758136 42.519765,48.4032696 36.3765374,48.4032696 C30.2423147,48.4032696 25.2553322,43.3758136 25.2553322,37.2007269 C25.2553322,35.7195038 25.550697,34.2962968 26.0711874,33 L20,33 L20,49.7702735 C20,51.9386246 21.7433727,53.688172 23.8973746,53.688172 L48.8575012,53.688172 C51.009702,53.688172 52.7548757,51.9386246 52.7548757,49.7702735 L52.7548757,33 L46.6836883,33 C47.2041787,34.2962968 47.5067475,35.7195038 47.5067475,37.2007269 Z" id="Fill-6" fill="#FFFFFF"></path>
            </g>
        </g>
    </g>
</svg>