<?xml version="1.0" encoding="UTF-8"?>
<svg width="261px" height="64px" viewBox="0 0 261 64" version="1.1" xmlns="http://www.w3.org/2000/svg" xmlns:xlink="http://www.w3.org/1999/xlink">
    <!-- Generator: Sketch 52.3 (67297) - http://www.bohemiancoding.com/sketch -->
    <title>PPT_Logo_horiz_white_rgb</title>
    <desc>Created with Sketch.</desc>
    <g id="Page-1" stroke="none" stroke-width="1" fill="none" fill-rule="evenodd">
        <g id="Sexual-Health-—-Birth-Control" transform="translate(-1108.000000, -3133.000000)" fill="#FFFFFF">
            <g id="Donate-section" transform="translate(0.000000, 2853.000000)">
                <g id="PPT_Logo_horiz_white_rgb" transform="translate(1108.460472, 280.188976)">
                    <path d="M128.011334,9.90863092 C128.011334,10.7922927 128.191153,11.4493745 128.554182,11.8781334 C128.915515,12.3051494 129.373542,12.5195289 129.926568,12.5195289 C130.411738,12.5195289 130.818873,12.313864 131.146278,11.9025343 C131.475379,11.4929475 131.638234,10.7957785 131.638234,9.81277018 C131.638234,8.90819337 131.468594,8.24239695 131.127618,7.81712385 C130.784945,7.39359367 130.367631,7.1792142 129.875676,7.1792142 C129.343007,7.1792142 128.900247,7.39359367 128.544003,7.82409554 C128.189456,8.25111157 128.011334,8.94653767 128.011334,9.90863092 Z M123.828017,19.1496063 L123.828017,4.28421983 L127.734822,4.28421983 L127.734822,5.93825334 C128.274276,5.24282724 128.769624,4.77223815 129.21917,4.52648607 C129.829873,4.19707371 130.501647,4.03149606 131.23958,4.03149606 C132.69509,4.03149606 133.819802,4.60317466 134.617109,5.74827478 C135.414416,6.89163197 135.811373,8.30688509 135.811373,9.9922912 C135.811373,11.8537325 135.377095,13.2742144 134.508539,14.2519939 C133.64168,15.2315164 132.54411,15.7212776 131.219223,15.7212776 C130.576288,15.7212776 129.989335,15.6079877 129.461755,15.3831507 C128.930782,15.1600566 128.457487,14.8254154 128.04187,14.384456 L128.04187,19.1496063 L123.828017,19.1496063 Z" id="Fill-1"></path>
                    <polygon id="Fill-2" points="138.807212 15.1181102 143.800277 15.1181102 143.800277 0 138.807212 0"></polygon>
                    <path d="M154.379575,10.8512883 C153.831412,11.0513003 153.260545,11.2281704 152.66535,11.3818986 C151.85608,11.6017464 151.341975,11.8182883 151.1279,12.0298712 C150.904093,12.2513721 150.793812,12.4993208 150.793812,12.7803294 C150.793812,13.0993568 150.904093,13.3605294 151.123034,13.5638474 C151.340353,13.7671653 151.663088,13.8696508 152.086373,13.8696508 C152.532364,13.8696508 152.944297,13.7589004 153.327038,13.5390525 C153.708157,13.3192046 153.978995,13.05142 154.141173,12.7356986 C154.300108,12.4199772 154.379575,12.0083824 154.379575,11.500914 L154.379575,10.8512883 Z M150.921933,8.71562324 L147.109121,8.30568134 C147.253459,7.62630182 147.461048,7.09238556 147.731885,6.70227956 C148.002723,6.31217355 148.391951,5.97496328 148.902813,5.68734276 C149.267714,5.48237181 149.772089,5.32203163 150.411071,5.20797521 C151.051676,5.09557179 151.744177,5.03937008 152.488576,5.03937008 C153.685452,5.03937008 154.645547,5.10714273 155.370485,5.24434103 C156.095422,5.37988633 156.700347,5.66585387 157.183638,6.09728466 C157.522591,6.39812911 157.790185,6.82129495 157.986421,7.37174112 C158.182657,7.92053431 158.281585,8.44453262 158.281585,8.94538906 L158.281585,13.6283141 C158.281585,14.1291705 158.310778,14.5192765 158.372405,14.803591 C158.435655,15.0862526 158.570263,15.4466047 158.779473,15.8863005 L155.038019,15.8863005 C154.887193,15.6135569 154.788264,15.4052799 154.742854,15.2614697 C154.697445,15.1176594 154.650413,14.8945056 154.605003,14.5870491 C154.082789,15.1011295 153.56544,15.4664406 153.048091,15.6862885 C152.342615,15.978868 151.521993,16.1259843 150.587846,16.1259843 C149.347182,16.1259843 148.404925,15.8334048 147.761078,15.2482458 C147.11723,14.6614338 146.796117,13.9390765 146.796117,13.0795209 C146.796117,12.274514 147.02641,11.6116644 147.49024,11.0926251 C147.955692,10.5719327 148.810371,10.1867857 150.057523,9.93387799 C151.554429,9.62642157 152.525877,9.41153267 152.968624,9.2892113 C153.412992,9.16523693 153.884931,9.00489675 154.379575,8.80488478 C154.379575,8.30568134 154.279024,7.95524713 154.076302,7.75688815 C153.873579,7.55522318 153.516786,7.45604369 153.009168,7.45604369 C152.353968,7.45604369 151.865811,7.56348814 151.539833,7.77672405 C151.283591,7.94367619 151.077624,8.25609159 150.921933,8.71562324 Z" id="Fill-3"></path>
                    <path d="M161.775312,4.27647611 L165.482764,4.27647611 L165.482764,6.04202195 C166.036454,5.32059795 166.596619,4.80698462 167.164879,4.49611339 C167.73152,4.18693168 168.422822,4.03149606 169.238785,4.03149606 C170.341307,4.03149606 171.202602,4.37277861 171.825907,5.05703322 C172.449212,5.74128783 172.760055,6.79723629 172.760055,8.22656814 L172.760055,15.1181102 L168.759569,15.1181102 L168.759569,9.1558028 C168.759569,8.47661674 168.638146,7.99341472 168.398538,7.71295481 C168.155691,7.42911586 167.815707,7.2888859 167.380203,7.2888859 C166.897748,7.2888859 166.507575,7.47811187 166.206446,7.85994283 C165.906936,8.24008428 165.75799,8.92433889 165.75799,9.91270666 L165.75799,15.1181102 L161.775312,15.1181102 L161.775312,4.27647611" id="Fill-4"></path>
                    <path d="M176.754508,4.27647611 L180.463032,4.27647611 L180.463032,6.04202195 C181.01664,5.32059795 181.578341,4.80698462 182.144899,4.49611339 C182.713075,4.18693168 183.402657,4.03149606 184.2185,4.03149606 C185.320859,4.03149606 186.182027,4.37277861 186.80524,5.05703322 C187.428454,5.74128783 187.739251,6.79723629 187.739251,8.22656814 L187.739251,15.1181102 L183.739354,15.1181102 L183.739354,9.1558028 C183.739354,8.47661674 183.617949,7.99341472 183.378376,7.71295481 C183.135565,7.42911586 182.795631,7.2888859 182.360191,7.2888859 C181.877807,7.2888859 181.486073,7.47811187 181.186607,7.85994283 C180.887141,8.24008428 180.736599,8.92433889 180.736599,9.91270666 L180.736599,15.1181102 L176.754508,15.1181102 L176.754508,4.27647611" id="Fill-5"></path>
                    <path d="M199.683905,9.64295148 C199.606499,8.85778051 199.400084,8.29576339 199.066272,7.95524713 C198.730848,7.61638387 198.290604,7.44612574 197.743927,7.44612574 C197.115006,7.44612574 196.610257,7.70399242 196.234517,8.21641979 C195.994237,8.53544716 195.842651,9.01150872 195.776534,9.64295148 L199.683905,9.64295148 Z M203.71706,11.5918285 L195.766858,11.5918285 C195.839426,12.2447601 196.010363,12.7307397 196.282896,13.049767 C196.666698,13.5092987 197.16661,13.7390645 197.784242,13.7390645 C198.174495,13.7390645 198.543785,13.638232 198.893722,13.439873 C199.109813,13.3125927 199.340417,13.0894388 199.587148,12.7704115 L203.494519,13.1390286 C202.89785,14.2052081 202.175398,14.9688902 201.331999,15.4317278 C200.485375,15.8945654 199.2743,16.1259843 197.697161,16.1259843 C196.324824,16.1259843 195.245983,15.9276253 194.460638,15.5309073 C193.675294,15.1358423 193.023797,14.5060526 192.507759,13.644844 C191.991722,12.7819824 191.733703,11.7686986 191.733703,10.6033396 C191.733703,8.94538906 192.251353,7.60315994 193.288266,6.5766522 C194.323566,5.55179745 195.753957,5.03937008 197.57944,5.03937008 C199.061435,5.03937008 200.228969,5.2691359 201.088494,5.72866755 C201.944794,6.18819919 202.597903,6.85270178 203.044598,7.72548131 C203.494519,8.59826084 203.71706,9.73386602 203.71706,11.1322968 L203.71706,11.5918285 Z" id="Fill-6"></path>
                    <path d="M213.516021,10.2499149 C213.516021,9.37138064 213.334506,8.71596619 212.971477,8.28541469 C212.608448,7.85312005 212.152117,7.63697274 211.599091,7.63697274 C211.113921,7.63697274 210.706785,7.84440444 210.379381,8.25752471 C210.051976,8.67238811 209.887425,9.36789439 209.887425,10.3423004 C209.887425,11.2556972 210.057065,11.9250566 210.394648,12.3503787 C210.732231,12.7757009 211.151242,12.9866188 211.649983,12.9866188 C212.184348,12.9866188 212.627108,12.7722146 212.983352,12.3451494 C213.337899,11.916341 213.516021,11.2173484 213.516021,10.2499149 Z M217.697642,1.00787402 L217.697642,15.8732313 L213.792534,15.8732313 L213.792534,14.2190071 C213.244597,14.9214859 212.747552,15.3956155 212.29631,15.6413959 C211.694089,15.9638738 211.025708,16.1259843 210.286079,16.1259843 C208.803427,16.1259843 207.670233,15.5472672 206.888193,14.3880901 C206.106154,13.2306561 205.714286,11.8222123 205.714286,10.1645018 C205.714286,8.31156154 206.146867,6.892659 207.01203,5.90779421 C207.875497,4.92641568 208.974763,4.43485484 210.306435,4.43485484 C210.956156,4.43485484 211.546503,4.54815787 212.075779,4.77302081 C212.606751,4.99788374 213.074957,5.33430658 213.483789,5.78403244 L213.483789,1.00787402 L217.697642,1.00787402 Z" id="Fill-7"></path>
                    <path d="M128.011334,33.0904109 C128.011334,33.9741745 128.191153,34.6313321 128.554182,35.0583974 C128.915515,35.4889489 129.373542,35.7016099 129.926568,35.7016099 C130.411738,35.7016099 130.818873,35.4959214 131.146278,35.0862873 C131.475379,34.6749102 131.638234,33.9776608 131.638234,32.9945391 C131.638234,32.089858 131.468594,31.4239848 131.127618,30.9986627 C130.784945,30.5750837 130.367631,30.3624226 129.875676,30.3624226 C129.343007,30.3624226 128.900247,30.5768268 128.544003,31.0056352 C128.189456,31.4327005 128.011334,32.1282067 128.011334,33.0904109 Z M123.828017,42.3307087 L123.828017,27.4653513 L127.734822,27.4653513 L127.734822,29.1195755 C128.274276,28.4240693 128.769624,27.9534259 129.21917,27.7076455 C129.829873,27.3781952 130.501647,27.2125984 131.23958,27.2125984 C132.69509,27.2125984 133.819802,27.7843429 134.617109,28.9295751 C135.414416,30.0748072 135.811373,31.4884804 135.811373,33.1740808 C135.811373,35.0357368 135.377095,36.4563824 134.508539,37.4342747 C133.64168,38.4139101 132.54411,38.905471 131.219223,38.905471 C130.576288,38.905471 129.989335,38.7921679 129.461755,38.567305 C128.930782,38.3424421 128.457487,38.0095055 128.04187,37.5667521 L128.04187,42.3307087 L123.828017,42.3307087 Z" id="Fill-8"></path>
                    <path d="M146.391266,33.025303 C145.841556,33.2252851 145.269144,33.4004761 144.675652,33.5541814 C143.866491,33.7739965 143.354077,33.9905061 143.138409,34.2020575 C142.914633,34.4235253 142.804367,34.6730898 142.804367,34.9524038 C142.804367,35.2713836 142.913012,35.5325173 143.131923,35.7358049 C143.352456,35.9390926 143.673525,36.03991 144.098375,36.03991 C144.541062,36.03991 144.954561,35.9308289 145.33725,35.7126665 C145.719939,35.4911987 145.99074,35.223454 146.149653,34.9061269 C146.310188,34.5921053 146.391266,34.1805718 146.391266,33.6748318 L146.391266,33.025303 Z M142.932471,30.8883035 L139.120174,30.4784228 C139.264493,29.7991445 139.470432,29.2653078 139.742855,28.87526 C140.013656,28.4852122 140.402831,28.1480522 140.913624,27.8621273 C141.280097,27.6555341 141.782782,27.4952178 142.423299,27.3828312 C143.062196,27.2687918 143.756225,27.2125984 144.500523,27.2125984 C145.693994,27.2125984 146.655581,27.280361 147.38042,27.4175388 C148.105259,27.5547167 148.710102,27.8389888 149.193328,28.272008 C149.532235,28.5711549 149.799793,28.9942576 149.997624,29.5446218 C150.192212,30.0933331 150.289505,30.6189061 150.289505,31.1180351 L150.289505,35.800262 C150.289505,36.3010438 150.321937,36.6910916 150.383556,36.9753638 C150.445176,37.2596359 150.581387,37.6182816 150.790569,38.0595646 L147.046378,38.0595646 C146.897194,37.7852089 146.7999,37.5786157 146.754496,37.4331742 C146.707471,37.2910381 146.662067,37.064612 146.616663,36.7588542 C146.092898,37.2712051 145.573998,37.6381146 145.058341,37.8595824 C144.35296,38.1521183 143.532449,38.2992126 142.598428,38.2992126 C141.357932,38.2992126 140.414182,38.005024 139.772043,37.4199522 C139.128282,36.8332277 138.807212,36.1093253 138.807212,35.2515506 C138.807212,34.4466638 139.039096,33.783913 139.502863,33.264951 C139.96663,32.745989 140.821194,32.3592467 142.069799,32.1063767 C143.566502,31.7989661 144.534576,31.5841092 144.980506,31.4618061 C145.423192,31.3378502 145.893446,31.1758812 146.391266,30.9775518 C146.391266,30.4784228 146.289108,30.1280408 146.086412,29.9297114 C145.883717,29.7280765 145.528594,29.6289118 145.019423,29.6289118 C144.365933,29.6289118 143.876221,29.7363402 143.550286,29.9495443 C143.294079,30.1164716 143.088141,30.4288404 142.932471,30.8883035 Z" id="Fill-9"></path>
                    <path d="M153.786408,26.4496671 L157.883449,26.4496671 L157.883449,28.2250795 C158.276608,27.4564662 158.684,26.9277277 159.103844,26.6388643 C159.52191,26.3500008 160.039599,26.2047244 160.656913,26.2047244 C161.302691,26.2047244 162.008954,26.3956108 162.773925,26.7773836 L161.421884,29.7369673 C160.904194,29.5325668 160.495024,29.429522 160.194372,29.429522 C159.621534,29.429522 159.176783,29.6541936 158.8619,30.105226 C158.410034,30.7370093 158.1841,31.9211807 158.1841,33.6560508 L158.1841,37.2913386 L153.786408,37.2913386 L153.786408,26.4496671" id="Fill-10"></path>
                    <path d="M172.720826,31.8154935 C172.643441,31.0304396 172.437081,30.4685063 172.101747,30.1280408 C171.768026,29.789228 171.3279,29.6189953 170.782982,29.6189953 C170.152618,29.6189953 169.649617,29.8751708 169.272366,30.3891745 C169.032151,30.7081543 168.878994,31.1841449 168.814506,31.8154935 L172.720826,31.8154935 Z M176.754508,33.76408 L168.804833,33.76408 C168.875769,34.4169143 169.046661,34.9028214 169.320732,35.2218012 C169.704431,35.6812644 170.204208,35.9109959 170.821674,35.9109959 C171.21021,35.9109959 171.581012,35.8101785 171.932468,35.6118491 C172.145276,35.4845877 172.375819,35.2614671 172.622483,34.9424873 L176.528802,35.3110494 C175.932294,36.37707 175.211648,37.1406383 174.366865,37.6050597 C173.523693,38.0661755 172.311331,38.2992126 170.733004,38.2992126 C169.362648,38.2992126 168.28571,38.0992304 167.500577,37.7042244 C166.713832,37.3075655 166.06251,36.6778696 165.546611,35.8167894 C165.0291,34.9540565 164.771151,33.9409238 164.771151,32.7740857 C164.771151,31.1180351 165.288662,29.7760061 166.325296,28.7513041 C167.361929,27.7266022 168.791936,27.2125984 170.616927,27.2125984 C172.096911,27.2125984 173.267356,27.44233 174.123425,27.9017931 C174.981106,28.3612563 175.632428,29.0273126 176.082227,29.8983092 C176.528802,30.7709586 176.754508,31.9063945 176.754508,33.3046169 L176.754508,33.76408 Z" id="Fill-11"></path>
                    <path d="M178.751734,26.4496671 L182.458639,26.4496671 L182.458639,28.214944 C183.013866,27.4936299 183.573949,26.9784055 184.142125,26.6692709 C184.710301,26.3601363 185.399883,26.2047244 186.214107,26.2047244 C187.318085,26.2047244 188.179253,26.5476442 188.802466,27.2301053 C189.42568,27.9142557 189.736477,28.9717325 189.736477,30.3991573 L189.736477,37.2913386 L185.73658,37.2913386 L185.73658,31.3282504 C185.73658,30.6491678 185.615175,30.1677287 185.373983,29.8856222 C185.132792,29.6018265 184.792857,29.4616179 184.357417,29.4616179 C183.875034,29.4616179 183.483299,29.6525043 183.182215,30.0325878 C182.884367,30.4143606 182.733825,31.0968217 182.733825,32.0833496 L182.733825,37.2913386 L178.751734,37.2913386 L178.751734,26.4496671" id="Fill-12"></path>
                    <path d="M199.324489,23.1811024 L199.324489,26.8604119 L201.56888,26.8604119 L201.56888,29.9994154 L199.324489,29.9994154 L199.324489,33.9610784 C199.324489,34.4386391 199.367619,34.7523652 199.453878,34.9074853 C199.588243,35.1445228 199.822137,35.2647844 200.155561,35.2647844 C200.457467,35.2647844 200.87715,35.1741525 201.419586,34.9911456 L201.719834,37.9506281 C200.711268,38.1824368 199.767396,38.2992126 198.893195,38.2992126 C197.877993,38.2992126 197.129863,38.1615217 196.648804,37.88614 C196.167744,37.614244 195.811097,37.1994285 195.58052,36.6399503 C195.349943,36.0822151 195.233825,35.1811241 195.233825,33.9331916 L195.233825,29.9994154 L193.730929,29.9994154 L193.730929,26.8604119 L195.233825,26.8604119 L195.233825,24.8072491 L199.324489,23.1811024" id="Fill-13"></path>
                    <path d="M203.71706,22.1732283 L207.699737,22.1732283 L207.699737,27.3721283 C208.238856,26.7588247 208.777975,26.3192314 209.312236,26.0551209 C209.846498,25.7910104 210.479517,25.6580689 211.209675,25.6580689 C212.292769,25.6580689 213.144349,26.0196698 213.769274,26.7393266 C214.389341,27.4625285 214.701803,28.568602 214.701803,30.0593196 L214.701803,37.2913386 L210.701317,37.2913386 L210.701317,31.0342241 C210.701317,30.3216576 210.579893,29.8164798 210.338666,29.5204633 C210.097439,29.2226743 209.757454,29.0755523 209.320331,29.0755523 C208.839496,29.0755523 208.447704,29.2758509 208.148193,29.6746755 C207.847064,30.0752726 207.699737,30.7913843 207.699737,31.8265556 L207.699737,37.2913386 L203.71706,37.2913386 L203.71706,22.1732283" id="Fill-14"></path>
                    <path d="M222.704795,32.7740857 C222.704795,33.7194559 222.89173,34.4202198 223.268852,34.873072 C223.645973,35.3259242 224.119,35.5523502 224.689559,35.5523502 C225.263369,35.5523502 225.736396,35.3292296 226.108641,34.8829885 C226.477634,34.4367473 226.661318,33.7194559 226.661318,32.7344198 C226.661318,31.8154935 226.476009,31.1329098 226.102139,30.6833631 C225.729894,30.2338165 225.26662,30.0090431 224.717193,30.0090431 C224.135256,30.0090431 223.654101,30.237122 223.272103,30.6932796 C222.893356,31.1494373 222.704795,31.8435902 222.704795,32.7740857 Z M218.696255,32.7856549 C218.696255,31.1676175 219.234303,29.8338522 220.307149,28.7860118 C221.379994,27.7365186 222.831586,27.2125984 224.658674,27.2125984 C226.747471,27.2125984 228.325854,27.8290723 229.393823,29.0603675 C230.250474,30.0520145 230.679612,31.2750459 230.679612,32.7261561 C230.679612,34.3557628 230.148066,35.6928336 229.083348,36.7357157 C228.01863,37.7769451 226.547532,38.2992126 224.668427,38.2992126 C222.992513,38.2992126 221.636827,37.8661934 220.602994,36.9985022 C219.331835,35.9291761 218.696255,34.52269 218.696255,32.7856549 Z" id="Fill-15"></path>
                    <path d="M236.685378,32.7740857 C236.685378,33.7194559 236.873938,34.4202198 237.25106,34.873072 C237.626556,35.3259242 238.099583,35.5523502 238.670141,35.5523502 C239.245577,35.5523502 239.718604,35.3292296 240.089223,34.8829885 C240.458217,34.4367473 240.643527,33.7194559 240.643527,32.7344198 C240.643527,31.8154935 240.456591,31.1329098 240.084347,30.6833631 C239.710476,30.2338165 239.248828,30.0090431 238.697775,30.0090431 C238.115838,30.0090431 237.634683,30.237122 237.255936,30.6932796 C236.873938,31.1494373 236.685378,31.8435902 236.685378,32.7740857 Z M232.676838,32.7856549 C232.676838,31.1676175 233.214886,29.8338522 234.287731,28.7860118 C235.363827,27.7365186 236.812169,27.2125984 238.639257,27.2125984 C240.728054,27.2125984 242.306437,27.8290723 243.374405,29.0603675 C244.232682,30.0520145 244.660194,31.2750459 244.660194,32.7261561 C244.660194,34.3557628 244.128648,35.6928336 243.065556,36.7357157 C242.000838,37.7769451 240.528114,38.2992126 238.64901,38.2992126 C236.973095,38.2992126 235.617409,37.8661934 234.583576,36.9985022 C233.312417,35.9291761 232.676838,34.52269 232.676838,32.7856549 Z" id="Fill-16"></path>
                    <path d="M255.457768,32.4220777 C255.457768,31.5436448 255.276254,30.8883059 254.914921,30.457804 C254.551892,30.0255592 254.093864,29.8094368 253.540838,29.8094368 C253.055669,29.8094368 252.648533,30.0168446 252.321128,30.4299173 C251.992027,30.8447328 251.827476,31.5401589 251.827476,32.5161956 C251.827476,33.4277441 251.997116,34.0970263 252.334699,34.5222994 C252.675675,34.9475725 253.094686,35.1584662 253.59173,35.1584662 C254.124399,35.1584662 254.568856,34.9440867 254.925099,34.5170707 C255.281343,34.0883117 255.457768,33.3893998 255.457768,32.4220777 Z M259.63939,23.1811024 L259.63939,38.0464888 L255.734281,38.0464888 L255.734281,36.3924553 C255.188041,37.0931102 254.687604,37.5671851 254.236362,37.8146801 C253.635837,38.1353779 252.965759,38.2992126 252.229523,38.2992126 C250.745174,38.2992126 249.613677,37.7188194 248.829941,36.558033 C248.047901,35.4024753 247.656033,33.9941939 247.656033,32.3366745 C247.656033,30.4839479 248.088615,29.0652089 248.953778,28.0822006 C249.817245,27.0991923 250.916511,26.6076881 252.249879,26.6076881 C252.897904,26.6076881 253.48825,26.7192351 254.017526,26.9440722 C254.546803,27.1689092 255.015008,27.5070361 255.427233,27.9549672 L255.427233,23.1811024 L259.63939,23.1811024 Z" id="Fill-17"></path>
                    <path d="M129.517336,59.5826893 L129.819695,61.3096005 C129.2322,61.4246081 128.70977,61.480315 128.246664,61.480315 C127.488854,61.480315 126.905186,61.3689013 126.489922,61.1442771 C126.070829,60.9214498 125.778039,60.6249458 125.609637,60.2601561 C125.439321,59.8935693 125.35512,59.1262529 125.35512,57.9528158 L125.35512,51.3165171 L123.828017,51.3165171 L123.828017,49.7980572 L125.35512,49.7980572 L125.35512,46.9426338 L127.423789,46.3622047 L127.423789,49.7980572 L129.517336,49.7980572 L129.517336,51.3165171 L127.423789,51.3165171 L127.423789,58.0624324 C127.423789,58.6195006 127.462062,58.9788994 127.534781,59.1370348 C127.607501,59.2951703 127.726148,59.4209599 127.892636,59.5162006 C128.059125,59.6096442 128.296419,59.6563661 128.604519,59.6563661 C128.836072,59.6563661 129.140345,59.6312082 129.517336,59.5826893" id="Fill-18"></path>
                    <path d="M132.67399,55.9361814 C132.67399,57.2965934 132.973026,58.3131832 133.567775,58.9876037 C134.162524,59.6653303 134.913435,60.0008875 135.817188,60.0008875 C136.714295,60.0008875 137.460223,59.6620243 138.054971,58.9842978 C138.651381,58.3049182 138.948756,57.2701455 138.948756,55.8766737 C138.948756,54.5641984 138.64972,53.5707505 138.049987,52.894677 C137.451916,52.2202564 136.707649,51.8813932 135.817188,51.8813932 C134.913435,51.8813932 134.162524,52.2169504 133.567775,52.891371 C132.973026,53.5641385 132.67399,54.5790753 132.67399,55.9361814 Z M130.818308,55.9361814 C130.818308,53.9740804 131.36654,52.5177949 132.463004,51.5722837 C133.380047,50.7871128 134.498108,50.3937008 135.817188,50.3937008 C137.280801,50.3937008 138.480267,50.8714153 139.4106,51.8268444 C140.340933,52.7822735 140.804438,54.1030138 140.804438,55.7874121 C140.804438,57.1527831 140.600097,58.2255746 140.188093,59.0074396 C139.776088,59.7909576 139.178016,60.3992585 138.390556,60.8306893 C137.606418,61.2637731 136.74586,61.480315 135.817188,61.480315 C134.323671,61.480315 133.11756,61.0059064 132.197195,60.0537833 C131.276829,59.1000072 130.818308,57.7280242 130.818308,55.9361814 Z" id="Fill-19"></path>
                    <path d="M142.801664,61.480315 L142.801664,50.6386808 L144.482634,50.6386808 L144.482634,52.2808919 C144.91233,51.5138509 145.309369,51.0069957 145.673751,50.7603261 C146.038133,50.5153461 146.436891,50.3937008 146.873462,50.3937008 C147.502536,50.3937008 148.141924,50.5913743 148.793343,50.9850319 L148.150518,52.6897551 C147.691603,52.4261904 147.236125,52.2927185 146.778929,52.2927185 C146.369858,52.2927185 146.003757,52.4126743 145.678907,52.6559648 C145.352339,52.8958763 145.120303,53.2304008 144.9828,53.6595382 C144.774827,54.3133815 144.6717,55.0297369 144.6717,55.8052255 L144.6717,61.480315 L142.801664,61.480315" id="Fill-20"></path>
                    <path d="M152.647295,55.9361814 C152.647295,57.2965934 152.946231,58.3131832 153.540782,58.9876037 C154.135333,59.6653303 154.885995,60.0008875 155.789446,60.0008875 C156.684594,60.0008875 157.430274,59.6620243 158.026486,58.9842978 C158.622698,58.3049182 158.918312,57.2701455 158.918312,55.8766737 C158.918312,54.5641984 158.621037,53.5707505 158.019843,52.894677 C157.423631,52.2202564 156.677951,51.8813932 155.789446,51.8813932 C154.885995,51.8813932 154.135333,52.2169504 153.540782,52.891371 C152.946231,53.5641385 152.647295,54.5790753 152.647295,55.9361814 Z M150.790569,55.9361814 C150.790569,53.9740804 151.340279,52.5177949 152.436379,51.5722837 C153.353116,50.7871128 154.470806,50.3937008 155.789446,50.3937008 C157.252573,50.3937008 158.45164,50.8714153 159.381663,51.8268444 C160.310026,52.7822735 160.776699,54.1030138 160.776699,55.7874121 C160.776699,57.1527831 160.569104,58.2255746 160.157237,59.0074396 C159.74703,59.7909576 159.149157,60.3992585 158.361959,60.8306893 C157.576421,61.2637731 156.71781,61.480315 155.789446,61.480315 C154.296426,61.480315 153.090717,61.0059064 152.170658,60.0537833 C151.250598,59.1000072 150.790569,57.7280242 150.790569,55.9361814 Z" id="Fill-21"></path>
                    <path d="M162.773925,61.480315 L162.773925,50.6386808 L164.461455,50.6386808 L164.461455,52.1812104 C165.273331,50.988411 166.447189,50.3937008 167.981307,50.3937008 C168.64839,50.3937008 169.260313,50.511967 169.820525,50.74681 C170.380736,50.9799634 170.797879,51.2874556 171.075399,51.6709761 C171.352919,52.049428 171.5477,52.5055977 171.659742,53.0259691 C171.728692,53.3672517 171.761442,53.9636514 171.761442,54.8151682 L171.761442,61.480315 L169.88775,61.480315 L169.88775,54.886128 C169.88775,54.1393612 169.81363,53.5784414 169.668837,53.205058 C169.524044,52.8350536 169.263761,52.5376986 168.893159,52.3163718 C168.520834,52.0967345 168.086455,51.9869158 167.58485,51.9869158 C166.788487,51.9869158 166.097273,52.2352749 165.5181,52.7319931 C164.938927,53.2287112 164.647617,54.171462 164.647617,55.5585559 L164.647617,61.480315 L162.773925,61.480315" id="Fill-22"></path>
                    <path d="M179.449902,59.5826893 L179.750347,61.3096005 C179.162852,61.4246081 178.640422,61.480315 178.177316,61.480315 C177.419505,61.480315 176.835838,61.3689013 176.420573,61.1442771 C176.003395,60.9214498 175.710605,60.6249458 175.540289,60.2601561 C175.369973,59.8935693 175.285771,59.1262529 175.285771,57.9528158 L175.285771,51.3165171 L173.758669,51.3165171 L173.758669,49.7980572 L175.285771,49.7980572 L175.285771,46.9426338 L177.356355,46.3622047 L177.356355,49.7980572 L179.449902,49.7980572 L179.449902,51.3165171 L177.356355,51.3165171 L177.356355,58.0624324 C177.356355,58.6195006 177.392714,58.9788994 177.465433,59.1370348 C177.540066,59.2951703 177.658713,59.4209599 177.823288,59.5162006 C177.989777,59.6096442 178.227071,59.6563661 178.535171,59.6563661 C178.766724,59.6563661 179.070996,59.6312082 179.449902,59.5826893" id="Fill-23"></path>
                    <path d="M182.605995,55.9361814 C182.605995,57.2965934 182.90332,58.3131832 183.497969,58.9876037 C184.09428,59.6653303 184.843406,60.0008875 185.745347,60.0008875 C186.642305,60.0008875 187.38977,59.6620243 187.98442,58.9842978 C188.58073,58.3049182 188.878055,57.2701455 188.878055,55.8766737 C188.878055,54.5641984 188.579069,53.5707505 187.979436,52.894677 C187.381465,52.2202564 186.637322,51.8813932 185.745347,51.8813932 C184.843406,51.8813932 184.09428,52.2169504 183.497969,52.891371 C182.90332,53.5641385 182.605995,54.5790753 182.605995,55.9361814 Z M180.74896,55.9361814 C180.74896,53.9740804 181.297101,52.5177949 182.395043,51.5722837 C183.311934,50.7871128 184.428148,50.3937008 185.745347,50.3937008 C187.212039,50.3937008 188.409644,50.8714153 189.341483,51.8268444 C190.270001,52.7822735 190.73509,54.1030138 190.73509,55.7874121 C190.73509,57.1527831 190.529122,58.2255746 190.117186,59.0074396 C189.70525,59.7909576 189.107278,60.3992585 188.321609,60.8306893 C187.535941,61.2637731 186.677187,61.480315 185.745347,61.480315 C184.253739,61.480315 183.047829,61.0059064 182.129278,60.0537833 C181.207405,59.1000072 180.74896,57.7280242 180.74896,55.9361814 Z" id="Fill-24"></path>
                    <polyline id="Fill-25" points="55.9223301 3.02362205 55.9223301 48.3840017 70.9043791 63.496063 70.9043791 48.3840017 100.859917 48.3840017 100.859917 3.02362205 55.9223301 3.02362205"></polyline>
                    <polyline id="Fill-26" points="0 3.02362205 0 48.3840017 14.985473 63.496063 14.985473 48.3840017 44.9375867 48.3840017 44.9375867 3.02362205 0 3.02362205"></polyline>
                </g>
            </g>
        </g>
    </g>
</svg>