<?xml version="1.0" encoding="UTF-8"?>
<svg width="250px" height="250px" viewBox="0 0 250 250" version="1.1" xmlns="http://www.w3.org/2000/svg" xmlns:xlink="http://www.w3.org/1999/xlink">
    <!-- Generator: Sketch 52.3 (67297) - http://www.bohemiancoding.com/sketch -->
    <title>fact sheet</title>
    <desc>Created with Sketch.</desc>
    <g id="fact-sheet" stroke="none" stroke-width="1" fill="none" fill-rule="evenodd">
        <g id="fact-sheet-orange">
            <circle id="Oval" fill="#F7911D" cx="125" cy="125" r="125"></circle>
            <g id="fact-sheet" transform="translate(60.000000, 70.000000)" fill="#FFFFFF">
                <path d="M99.4632194,25.9318625 C99.4632194,29.5900183 96.5950523,31.815185 94.5022349,33.4477779 C93.709874,34.0665497 92.2339341,35.1938954 92.2375154,35.6163902 C92.2513929,37.2697751 90.8211145,38.5904871 89.0407647,38.5904871 L89.0130097,38.5904871 C87.2469852,38.5904871 85.8059629,37.3105276 85.7920853,35.6650436 C85.762092,32.4227291 88.3101812,30.4799186 90.3577848,28.8847515 C91.9630989,27.63099 93.0173417,26.750654 93.0173417,25.9430902 C93.0173417,24.3104973 91.5870633,22.9818844 89.8277536,22.9818844 C88.0702346,22.9818844 86.6381656,24.3104973 86.6381656,25.9430902 C86.6381656,27.596891 85.1953526,28.9367316 83.4154505,28.9367316 C81.6351008,28.9367316 80.1927355,27.596891 80.1927355,25.9430902 C80.1927355,21.0083017 84.5153548,16.9929383 89.8277536,16.9929383 C95.1401525,16.9929383 99.4632194,20.997074 99.4632194,25.9318625 Z M89.1020944,41.3537524 C87.3217446,41.3537524 85.9510052,42.693593 85.9510052,44.3473938 L85.9510052,44.3702651 C85.9510052,46.02365 87.3235353,47.3539263 89.1020944,47.3539263 C90.8824441,47.3539263 92.3266,46.0007788 92.3266,44.3473938 C92.3266,42.693593 90.8842347,41.3537524 89.1020944,41.3537524 Z M24.1352213,62.2106879 C22.3553193,62.2106879 20.9125063,63.5509443 20.9125063,65.2043293 C20.9125063,66.8581301 22.3553193,68.1979707 24.1352213,68.1979707 L24.4029229,68.1979707 C26.1846156,68.1979707 27.6274286,66.8581301 27.6274286,65.2043293 C27.6274286,63.5509443 26.1846156,62.2106879 24.4029229,62.2106879 L24.1352213,62.2106879 Z M35.3375023,62.2106879 C33.5571526,62.2106879 32.1143396,63.5509443 32.1143396,65.2043293 C32.1143396,66.8581301 33.5571526,68.1979707 35.3375023,68.1979707 L35.6047562,68.1979707 C37.385106,68.1979707 38.8274713,66.8581301 38.8274713,65.2043293 C38.8274713,63.5509443 37.385106,62.2106879 35.6047562,62.2106879 L35.3375023,62.2106879 Z M130,14.3889401 L130,48.088302 C130,56.0674646 123.114071,62.5421134 114.524342,62.5421134 L72.7239513,62.5421134 C71.9074167,62.5421134 71.2341338,62.5387867 70.6709757,62.5275589 C70.0800625,62.5159154 69.4170759,62.5113411 69.1583275,62.5387867 C68.889283,62.7042915 68.2262963,63.2665089 67.5897217,63.8125085 C67.3381359,64.0283301 67.0511849,64.2653597 66.7436415,64.5269238 L54.9173204,74.5395503 C53.9745453,75.3387972 52.5791844,75.5467179 51.409445,75.0676687 C50.2410485,74.5898671 49.4209327,73.5149174 49.4209327,72.328938 L49.4209327,40.5869411 L15.6578558,40.5869411 C10.6216641,40.5869411 6.44543006,44.4205819 6.44543006,49.097133 L6.44543006,82.7964948 C6.44543006,87.4747093 10.6216641,91.1524096 15.6578558,91.1524096 L62.347158,91.1524096 C63.1516057,91.1524096 63.903677,91.4950628 64.4981715,91.9986466 L74.1336373,100.250601 L74.1336373,71.794582 C74.1336373,70.1407812 75.5760026,68.8009406 77.3563523,68.8009406 C79.1362544,68.8009406 80.5790673,70.1407812 80.5790673,71.794582 L80.5790673,107.037131 C80.5790673,108.222694 79.8480361,109.281842 78.6800873,109.759644 C78.2619715,109.931802 77.8425127,110 77.4033568,110 C76.6132343,110 75.8347509,109.697683 75.2299603,109.184535 L61.0986302,97.1396924 L15.6578558,97.1396924 C7.06812719,97.1396924 0,90.7769049 0,82.7964948 L0,49.097133 C0,41.1179704 7.06812719,34.5979949 15.6578558,34.5979949 L49.4209327,34.5979949 L49.4209327,14.3889401 C49.4209327,6.40853004 56.5436745,0 65.1329555,0 L114.524342,0 C123.114071,0 130,6.40853004 130,14.3889401 Z M123.55457,14.3889401 C123.55457,9.71072568 119.558744,5.98769866 114.524342,5.98769866 L65.1329555,5.98769866 C60.0967638,5.98769866 55.868601,9.71072568 55.868601,14.3889401 L55.868601,65.5424083 L62.3489487,60.1023726 C62.6479866,59.8487094 62.9855233,59.6150066 63.2303941,59.4054226 C66.1889889,56.8712858 66.9464321,56.4666722 70.8057218,56.5415236 C71.3321717,56.5515038 71.9597931,56.5544147 72.7239513,56.5544147 L114.524342,56.5544147 C119.558744,56.5544147 123.55457,52.7665165 123.55457,48.088302 L123.55457,14.3889401 Z" id="Fill-1"></path>
            </g>
        </g>
    </g>
</svg>