<?xml version="1.0" encoding="UTF-8"?>
<svg width="250px" height="250px" viewBox="0 0 250 250" version="1.1" xmlns="http://www.w3.org/2000/svg" xmlns:xlink="http://www.w3.org/1999/xlink">
    <!-- Generator: Sketch 52.3 (67297) - http://www.bohemiancoding.com/sketch -->
    <title>workshops</title>
    <desc>Created with Sketch.</desc>
    <g id="workshops" stroke="none" stroke-width="1" fill="none" fill-rule="evenodd">
        <g id="workshops-orange">
            <g id="workshop">
                <circle id="Oval" fill="#F7911D" cx="125" cy="125" r="125"></circle>
                <g id="Group-9" transform="translate(68.000000, 58.000000)" fill="#FFFFFF" stroke="#F7911D">
                    <g id="body" transform="translate(21.633663, 0.000000)">
                        <path d="M9.46407789,123.1724 C9.46407789,125.215933 11.0566766,126.872645 13.0211272,126.872645 C14.9855778,126.872645 16.5781765,125.21624 16.5781765,123.1724 L16.5781765,84.0173057 L9.46407789,84.0173057 L9.46407789,123.1724" id="Fill-1"></path>
                        <path d="M54.5200358,123.1724 C54.5200358,125.215933 56.1122739,126.872645 58.0772324,126.872645 C60.0418963,126.872645 61.6341344,125.21624 61.6341344,123.1724 L61.6341344,84.0173057 L54.5203304,84.0173057 L54.5203304,123.1724 L54.5200358,123.1724" id="Fill-2"></path>
                        <path d="M21.3209089,127.265148 C21.3209089,131.20527 24.3288443,134.399411 28.0396338,134.399411 C31.7507153,134.399411 34.7586507,131.20558 34.7586507,127.265148 L34.7586507,82.1158972 L21.3212009,82.1158972 L21.3212009,127.265148 L21.3209089,127.265148" id="Fill-3" stroke-width="3"></path>
                        <path d="M37.1300169,127.265148 C37.1300169,131.20527 40.1379523,134.399411 43.8490338,134.399411 C47.5595314,134.399411 50.5677588,131.20558 50.5677588,127.265148 L50.5677588,82.1158972 L37.1303089,82.1158972 L37.1303089,127.265148 L37.1300169,127.265148" id="Fill-4" stroke-width="3"></path>
                        <path d="M34.481906,17.1662884 C40.7083369,17.1662884 45.7559816,22.0452778 45.7559816,28.0642796 C45.7559816,34.0830071 40.7083369,38.9622708 34.481906,38.9622708 C28.2554751,38.9622708 23.2078304,34.0830071 23.2078304,28.0642796 C23.2078304,22.0452778 28.2554751,17.1662884 34.481906,17.1662884" id="Fill-5"></path>
                        <path d="M5.46072455,73.3414349 C5.4652638,73.3414349 5.46980305,73.3414349 5.4743423,73.3414349 L26.396875,73.2907007 C29.4012903,73.2835704 31.8306396,70.923468 31.8229796,68.0192749 C31.8156033,65.1194697 29.3817148,62.7741762 26.3838247,62.7741762 C26.3790017,62.7741762 26.3741788,62.7741762 26.3699232,62.7741762 L14.0594804,62.803794 C16.5157814,57.7813775 15.9951863,58.8456998 18.4188615,53.8899234 C18.4333303,53.8605798 18.4477992,53.8312362 18.4634028,53.8021668 C18.8046976,53.1527684 19.5619011,52.8146315 20.2944223,52.9846598 C21.0269436,53.1544138 21.5429995,53.7881806 21.5429995,54.5162857 L21.5429995,57.9684086 L26.3574403,57.9568906 C26.3662351,57.9568906 26.3750299,57.9568906 26.3841084,57.9568906 C32.1288115,57.9568906 36.792606,62.4511224 36.8070748,68.0074827 C36.8121815,69.9644535 36.2379665,71.7908865 35.2430199,73.3395152 L50.3564489,73.3395152 L50.3564489,50.0269901 C50.9261246,49.3734781 49.2040471,52.440295 73.3389495,7.6902181 C74.7279596,5.1151121 73.6941457,1.93887379 71.0298903,0.596747191 C68.3659187,-0.745927887 65.0806373,0.253673963 63.6916272,2.82850572 L42.8993142,41.3818739 C40.3281134,41.3818739 23.6137481,41.3818739 21.6712333,41.3818739 C16.1012912,41.3818739 10.9637127,44.5271231 8.58287664,49.395143 C7.55530419,51.4969122 1.40887756,64.0647458 0.542732137,65.836331 C-1.15750026,69.3128612 1.46675298,73.3419834 5.46072455,73.3414349" id="Fill-7"></path>
                    </g>
                    <path d="M111.682163,75.5084746 C109.60502,75.5084746 3.97084908,75.5084746 3.31698126,75.5084746 C1.48518143,75.5084746 0,76.8462452 0,78.4962307 C0,80.1464733 1.48518143,81.4845008 3.31698126,81.4845008 L6.88786408,81.4845008 L6.88786408,129.270098 C6.88786408,131.802765 9.16727238,133.855932 11.9793034,133.855932 C14.7910491,133.855932 17.0704574,131.802765 17.0704574,129.270098 L17.0704574,81.4845008 C20.6989673,81.4845008 94.4690642,81.4845008 98.2290894,81.4845008 L98.2290894,129.270098 C98.2290894,131.802765 100.508498,133.855932 103.320243,133.855932 C106.131989,133.855932 108.411397,131.802765 108.411397,129.270098 L108.411397,81.4845008 L111.682733,81.4845008 C113.514819,81.4845008 115,80.1467303 115,78.4962307 C114.999429,76.8465021 113.514248,75.5084746 111.682163,75.5084746" id="Fill-8"></path>
                </g>
            </g>
        </g>
    </g>
</svg>