<?xml version="1.0" encoding="UTF-8"?>
<svg width="72px" height="72px" viewBox="0 0 72 72" version="1.1" xmlns="http://www.w3.org/2000/svg" xmlns:xlink="http://www.w3.org/1999/xlink">
    <!-- Generator: Sketch 52.3 (67297) - http://www.bohemiancoding.com/sketch -->
    <title>twitter</title>
    <desc>Created with Sketch.</desc>
    <defs>
        <polygon id="path-1" points="0 0 71.3257835 0 71.3257835 72 0 72"></polygon>
    </defs>
    <g id="Page-1" stroke="none" stroke-width="1" fill="none" fill-rule="evenodd">
        <g id="twitter">
            <g id="twitter-logo-button-Copy-2" transform="translate(0.000000, -0.000000)">
                <g id="twitter-logo-button" transform="translate(0.270370, 0.000000)">
                    <ellipse id="Oval" stroke="#979797" fill="#2C2C2C" cx="36.1321403" cy="34.1298701" rx="31.4396546" ry="29.4545455"></ellipse>
                    <mask id="mask-2" fill="white">
                        <use xlink:href="#path-1"></use>
                    </mask>
                    <g id="Clip-2"></g>
                    <path d="M35.6584028,0 C15.9986086,0 0,16.1516502 0,35.9972812 C0,55.8501624 15.9986086,72 35.6584028,72 C55.3253793,72 71.3257835,55.8501624 71.3257835,35.9972812 C71.3257835,16.1516502 55.3253793,0 35.6584028,0 Z M51.5744148,27.7628578 C51.5869838,28.1163054 51.5941662,28.4770032 51.5941662,28.8395136 C51.5941662,39.7855147 43.3398896,52.4081263 28.2390705,52.4081263 C23.6028856,52.4081263 19.2881093,51.0432747 15.6556531,48.6851446 C16.3002659,48.7630844 16.9520611,48.8047731 17.6128341,48.8047731 C21.4625554,48.8047731 24.9980504,47.4816102 27.8099271,45.2576089 C24.2187692,45.1869194 21.1896274,42.7943509 20.1446005,39.500944 C20.6419759,39.6006344 21.1537159,39.6495733 21.6870028,39.6495733 C22.4303725,39.6495733 23.1593776,39.5516955 23.8470843,39.359565 C20.0943243,38.6019183 17.2609007,35.2541349 17.2609007,31.2393324 C17.2609007,31.2030813 17.2609007,31.1686429 17.268083,31.1323918 C18.3687729,31.7559097 19.6400428,32.1238577 20.986727,32.1655464 C18.7835516,30.686504 17.3309282,28.1453062 17.3309282,25.2705989 C17.3309282,23.7553055 17.7385247,22.3324522 18.440596,21.1071671 C22.4860355,26.1206857 28.5407277,29.4195302 35.3567455,29.7657277 C35.2166904,29.1567102 35.1466628,28.5277547 35.1466628,27.875236 C35.1466628,23.3021675 38.8222129,19.5918737 43.3542543,19.5918737 C45.7172362,19.5918737 47.8485884,20.59784 49.3425101,22.203761 C51.215299,21.835813 52.976762,21.1488558 54.5622582,20.193641 C53.944579,22.1330715 52.6463754,23.7553055 50.9495533,24.7812099 C52.6122594,24.5836417 54.1977557,24.1377539 55.6629481,23.4797976 C54.5694405,25.1364701 53.1724801,26.5937618 51.5744148,27.7628578 Z" id="Fill-1" fill="#FFFFFF" mask="url(#mask-2)"></path>
                </g>
            </g>
        </g>
    </g>
</svg>