<?xml version="1.0" encoding="UTF-8"?>
<svg width="133px" height="140px" viewBox="0 0 133 140" version="1.1" xmlns="http://www.w3.org/2000/svg" xmlns:xlink="http://www.w3.org/1999/xlink">
    <!-- Generator: Sketch 52.3 (67297) - http://www.bohemiancoding.com/sketch -->
    <title>annual report</title>
    <desc>Created with Sketch.</desc>
    <g id="annual-report" stroke="none" stroke-width="1" fill="none" fill-rule="evenodd">
        <g fill="#0A090B">
            <g id="Group-8">
                <polygon id="Fill-6" points="0 139.982536 133 139.982536 133 135.343035 0 135.343035"></polygon>
                <path d="M114.26695,19.3240748 L117.84465,8.58511435 L124.366083,22.2882328 C124.913323,23.4393763 126.245262,23.906237 127.34085,23.3313929 C128.436437,22.7565489 128.881156,21.3577131 128.333917,20.2065696 L119.46725,1.57871102 C118.920842,0.428149688 117.589733,-0.0392931393 116.494146,0.534677755 C116.493592,0.534968815 116.493037,0.535259875 116.492483,0.535550936 L98.75915,9.84948025 C97.6635625,10.4243243 97.2188437,11.8234511 97.7660833,12.9743035 C98.3133229,14.125447 99.6452625,14.5923077 100.74085,14.0174636 L113.584217,7.27650728 L110.079667,17.7872765 C94.6754958,63.8702703 55.0004875,96.2000832 8.67825,100.4158 L9.05508333,105.072765 C57.1223917,100.698711 98.2906021,67.1461538 114.26695,19.3240748" id="Fill-7"></path>
            </g>
            <path d="M13.5986998,125.664894 L24.6034279,125.664894 L24.6034279,116.356383 L13.5986998,116.356383 L13.5986998,125.664894 Z M11.3977541,111.702128 C10.1822819,111.702128 9.19680851,112.744099 9.19680851,114.029255 L9.19680851,127.992021 C9.19680851,129.277178 10.1822819,130.319149 11.3977541,130.319149 L26.8043735,130.319149 C28.0198457,130.319149 29.0053191,129.277178 29.0053191,127.992021 L29.0053191,114.029255 C29.0053191,112.744099 28.0198457,111.702128 26.8043735,111.702128 L11.3977541,111.702128 Z" id="Fill-9"></path>
            <path d="M37.6518913,125.715667 L48.6566194,125.715667 L48.6566194,109.603482 L37.6518913,109.603482 L37.6518913,125.715667 Z M35.4509456,105 C34.2354734,105 33.25,106.030604 33.25,107.301741 L33.25,128.017408 C33.25,129.288544 34.2354734,130.319149 35.4509456,130.319149 L50.857565,130.319149 C52.0730372,130.319149 53.0585106,129.288544 53.0585106,128.017408 L53.0585106,107.301741 C53.0585106,106.030604 52.0730372,105 50.857565,105 L35.4509456,105 Z" id="Fill-10"></path>
            <path d="M62.4125296,125.664894 L73.4172577,125.664894 L73.4172577,97.7393617 L62.4125296,97.7393617 L62.4125296,125.664894 Z M60.2115839,93.0851064 C58.9961117,93.0851064 58.0106383,94.1270778 58.0106383,95.412234 L58.0106383,127.992021 C58.0106383,129.277178 58.9961117,130.319149 60.2115839,130.319149 L75.6182033,130.319149 C76.8336755,130.319149 77.8191489,129.277178 77.8191489,127.992021 L77.8191489,95.412234 C77.8191489,94.1270778 76.8336755,93.0851064 75.6182033,93.0851064 L60.2115839,93.0851064 Z" id="Fill-11"></path>
            <path d="M85.7582742,126.40148 L96.7630024,126.40148 L96.7630024,82.1091582 L85.7582742,82.1091582 L85.7582742,126.40148 Z M83.5573286,77.4468085 C82.3418564,77.4468085 81.356383,78.490592 81.356383,79.7779833 L81.356383,128.732655 C81.356383,130.020046 82.3418564,131.06383 83.5573286,131.06383 L98.963948,131.06383 C100.17942,131.06383 101.164894,130.020046 101.164894,128.732655 L101.164894,79.7779833 C101.164894,78.490592 100.17942,77.4468085 98.963948,77.4468085 L83.5573286,77.4468085 Z" id="Fill-12"></path>
            <path d="M111.226359,125.690052 L122.231087,125.690052 L122.231087,49.3099482 L111.226359,49.3099482 L111.226359,125.690052 Z M109.025414,44.6808511 C107.809941,44.6808511 106.824468,45.7171902 106.824468,46.9953997 L106.824468,128.0046 C106.824468,129.28281 107.809941,130.319149 109.025414,130.319149 L124.432033,130.319149 C125.647505,130.319149 126.632979,129.28281 126.632979,128.0046 L126.632979,46.9953997 C126.632979,45.7171902 125.647505,44.6808511 124.432033,44.6808511 L109.025414,44.6808511 Z" id="Fill-13"></path>
        </g>
    </g>
</svg>