<?xml version="1.0" encoding="UTF-8"?>
<svg width="133px" height="140px" viewBox="0 0 133 140" version="1.1" xmlns="http://www.w3.org/2000/svg" xmlns:xlink="http://www.w3.org/1999/xlink">
    <!-- Generator: Sketch 52.3 (67297) - http://www.bohemiancoding.com/sketch -->
    <title>donation</title>
    <desc>Created with Sketch.</desc>
    <g id="donation" stroke="none" stroke-width="1" fill="none" fill-rule="evenodd">
        <g fill="#0A090B">
            <path d="M83.6647202,79.4375703 C83.2666598,79.4375703 82.8766736,79.1537333 82.647365,78.6966522 L69.7902019,53.0859455 L114.449674,53.0859455 C115.257368,53.0859455 116.027113,53.6203872 116.459085,54.480615 L128.94564,79.3539447 C128.960174,79.3828187 128.965018,79.4116927 128.965018,79.4375703 C127.733696,79.4375703 84.8039966,79.4375703 83.6647202,79.4375703 Z M18.0218928,133.559188 L18.0218928,83.5237883 L49.3357099,83.5237883 C51.2686848,83.5237883 53.0345228,82.3769996 53.9525648,80.5475856 L64.4813839,59.5746995 L64.4813839,135.91351 L19.8768167,135.91351 C18.8713037,135.913782 18.0218928,134.835365 18.0218928,133.559188 Z M4.05478981,79.3542171 L16.5413449,54.4808874 C16.973048,53.6206596 17.7430621,53.0862179 18.5507561,53.0862179 L63.2102282,53.0862179 C61.6669703,56.160211 52.4359519,74.5477831 50.3530651,78.6969246 L50.3530651,78.697197 C50.1234873,79.1540057 49.7337703,79.4378427 49.3357099,79.4378427 C48.1972409,79.4378427 5.26485041,79.4378427 4.03541161,79.4378427 C4.03541161,79.4119651 4.0405253,79.3830911 4.05478981,79.3542171 Z M132.544871,77.5030113 L120.058316,52.629954 C118.934111,50.3905835 116.785016,49 114.449405,49 C110.238954,49 22.7534021,49 18.5504869,49 C16.2148762,49 14.0657805,50.3905835 12.9415761,52.629954 L0.455020987,77.5030113 C-0.205183344,78.8184134 -0.143280777,80.4143837 0.616775085,81.6676794 C1.32138778,82.8302671 2.51772216,83.5237883 3.81740692,83.5237883 L13.9839615,83.5237883 L13.9839615,133.559188 C13.9839615,137.110419 16.6272011,140 19.8765476,140 C21.2096059,140 111.790555,140 113.123613,140 C116.372691,140 119.016199,137.110692 119.016199,133.559188 L119.016199,112.079372 C119.016199,110.950834 118.112422,110.036399 116.997368,110.036399 C115.882315,110.036399 114.978806,110.950834 114.978806,112.079372 L114.978806,133.559188 C114.978806,134.835365 114.129126,135.913782 113.123613,135.913782 L68.518777,135.913782 L68.518777,59.5746995 L79.0475962,80.5473132 C79.9688678,82.3832647 81.7382047,83.5237883 83.6644511,83.5237883 L114.978268,83.5237883 L114.978268,102.544954 C114.978268,103.673493 115.882046,104.587927 116.997099,104.587927 C118.112153,104.587927 119.01593,103.673493 119.01593,102.544954 L119.01593,83.5237883 L129.182485,83.5237883 C130.48217,83.5237883 131.678235,82.8299947 132.383117,81.6676794 C133.143173,80.4141113 133.205344,78.8184134 132.544871,77.5030113 Z" id="Fill-1"></path>
            <path d="M61.1627814,41.711825 C61.4903502,41.9072636 61.8496899,42 62.2043735,42 C62.9074413,42 63.5927064,41.6348677 63.9758743,40.9782385 C64.5521324,39.9905264 64.2273025,38.7174077 63.2498,38.1349676 C58.1004513,35.0652538 46.1217315,26.5401473 46.1083111,13.7043199 C46.1028333,7.98566653 51.0870281,3.49030334 56.7789468,4.26458322 C61.8661231,4.9574765 63.627764,8.99746236 64.0191484,9.4099318 C65.8333756,11.3230702 68.3093137,11.329714 70.0161772,9.352629 C70.472199,8.81974063 72.674524,4.15717507 78.4707936,4.15108492 C83.659308,4.15108492 87.8856576,8.4172369 87.8914092,13.6608584 C87.9037342,25.8818572 77.1479196,34.2358857 70.7354043,38.128047 C69.7628317,38.718515 69.4478617,39.9938483 70.0320626,40.9771312 C70.6165374,41.960414 71.8783346,42.2779324 72.8509072,41.6880181 C85.2097821,34.186334 92.010669,24.2311489 91.9999874,13.6564292 C91.9851975,0.290758561 74.605427,-5.39882821 66.9987646,6.45565407 C62.4199225,-0.969349404 52.1453273,-2.22336722 45.9579471,4.03897074 C43.4020341,6.62590152 41.9964462,10.0596404 42.0000067,13.7084723 C42.0104145,24.2521876 48.9950796,34.4592836 61.1627814,41.711825" id="Fill-3"></path>
        </g>
    </g>
</svg>