<?xml version="1.0" encoding="UTF-8"?>
<svg width="133px" height="140px" viewBox="0 0 133 140" version="1.1" xmlns="http://www.w3.org/2000/svg" xmlns:xlink="http://www.w3.org/1999/xlink">
    <!-- Generator: Sketch 52.3 (67297) - http://www.bohemiancoding.com/sketch -->
    <title>mission</title>
    <desc>Created with Sketch.</desc>
    <defs>
        <polygon id="path-1" points="0 0 133 0 133 140 0 140"></polygon>
    </defs>
    <g id="mission" stroke="none" stroke-width="1" fill="none" fill-rule="evenodd">
        <g>
            <mask id="mask-2" fill="white">
                <use xlink:href="#path-1"></use>
            </mask>
            <g id="Clip-2"></g>
            <path d="M79.2828558,0 C78.2063648,0 77.3349694,0.99041547 77.3349694,2.21313967 L77.3349694,57.9468417 C76.6538338,58.301216 76.0497391,58.8391319 75.5750004,59.5387181 L52.0884458,94.12139 L42.6472871,80.2209931 C41.0674273,77.8922902 37.9766803,77.8899257 36.3957794,80.2209931 L0.854139998,132.551934 C-1.2095681,135.590863 0.70057867,140 4.07918817,140 L74.7371802,140 C75.8128903,140 76.6853269,139.010471 76.6853269,137.787747 C76.6853269,136.565318 75.8128903,135.57579 74.7371802,135.57579 L28.8548771,135.57579 C28.9353016,135.457862 53.6318673,99.0950431 53.6318673,99.0950431 L78.6608022,62.2404155 C78.9749523,61.7772758 79.5910195,61.7763891 79.9062107,62.2404155 L128.972699,134.488135 C129.276698,134.936202 129.000288,135.57579 128.502125,135.57579 L83.8295725,135.57579 C82.7528212,135.57579 81.880645,136.565318 81.880645,137.787747 C81.880645,139.010471 82.7528212,140 83.8295725,140 L128.502125,140 C132.22924,140 134.33277,135.135999 132.058501,131.784369 L82.9917523,59.5387181 C82.5170135,58.8391319 81.912138,58.301216 81.2320435,57.9468417 L81.2320435,33.1589681 L87.9572489,33.1589681 C89.032959,33.1589681 89.9053956,32.1685526 89.9053956,30.9470106 C89.9053956,29.7242864 89.032959,28.7350532 87.9572489,28.7350532 L81.2320435,28.7350532 L81.2320435,8.22006418 L106.660498,8.22006418 L100.286662,15.9648708 C99.1266233,17.3732055 99.1266233,19.5795474 100.286662,20.9881777 L106.660498,28.733871 L97.0486001,28.733871 C95.9718489,28.733871 95.1007137,29.7242864 95.1007137,30.9458284 C95.1007137,32.1685526 95.9718489,33.1577858 97.0486001,33.1577858 L108.174249,33.1577858 C111.00264,33.1577858 112.46876,29.3122783 110.540134,26.9696842 L103.553354,18.4771154 L110.540134,9.9854332 C112.472925,7.63840567 110.997695,3.79496707 108.174249,3.79496707 L81.2320435,3.79496707 L81.2320435,2.21313967 C81.2320435,0.991597703 80.3585659,0 79.2828558,0 Z M3.93994189,135.253631 L39.4805402,82.9223949 C39.4896498,82.9096859 39.4966771,82.8993413 39.5211428,82.8993413 C39.5456085,82.8993413 39.5526359,82.9096859 39.5617455,82.9223949 L49.6270399,97.7443422 L23.9341474,135.57579 L4.07918817,135.57579 C3.92875013,135.57579 3.84936673,135.388701 3.93994189,135.253631 Z" id="Fill-1" fill="#000000" mask="url(#mask-2)"></path>
        </g>
    </g>
</svg>