<?xml version="1.0" encoding="UTF-8"?>
<svg width="105px" height="140px" viewBox="0 0 105 140" version="1.1" xmlns="http://www.w3.org/2000/svg" xmlns:xlink="http://www.w3.org/1999/xlink">
    <!-- Generator: Sketch 52.3 (67297) - http://www.bohemiancoding.com/sketch -->
    <title>376 IUD</title>
    <desc>Created with Sketch.</desc>
    <defs>
        <polygon id="path-1" points="0.291432019 0.0427933659 104.390949 0.0427933659 104.390949 126.699155 0.291432019 126.699155"></polygon>
    </defs>
    <g id="376-IUD" stroke="none" stroke-width="1" fill="none" fill-rule="evenodd">
        <g id="IUDs">
            <g id="Group-3" transform="translate(0.000000, 13.296089)">
                <mask id="mask-2" fill="white">
                    <use xlink:href="#path-1"></use>
                </mask>
                <g id="Clip-2"></g>
                <path d="M94.6765487,126.699155 L9.71440064,126.699155 C4.36176589,126.699155 0,122.42845 0,117.187563 L0,9.55438554 C0,4.31349825 4.36176589,0.0427933659 9.71440064,0.0427933659 L24.0188556,0.0427933659 C25.1020113,0.0427933659 25.9568785,0.894080866 25.9568785,1.93560021 C25.9568785,2.99614274 25.1020113,3.84743024 24.0188556,3.84743024 L9.71440064,3.84743024 C6.50864843,3.84743024 3.89061746,6.39653694 3.89061746,9.55438554 L3.89061746,117.187563 C3.89061746,120.345411 6.50864843,122.894518 9.71440064,122.894518 L94.6765487,122.894518 C97.8823009,122.894518 100.500332,120.345411 100.500332,117.187563 L100.500332,9.55438554 C100.500332,6.39653694 97.8823009,3.84743024 94.6765487,3.84743024 L80.3526649,3.84743024 C79.2889381,3.84743024 78.4194992,2.99614274 78.4194992,1.93560021 C78.4194992,0.894080866 79.2889381,0.0427933659 80.3526649,0.0427933659 L94.6765487,0.0427933659 C100.029183,0.0427933659 104.390949,4.31349825 104.390949,9.55438554 L104.390949,117.187563 C104.390949,122.447473 100.029183,126.699155 94.6765487,126.699155 Z" id="Fill-1" fill="#000000" mask="url(#mask-2)"></path>
            </g>
            <path d="M81.4032551,31.2849162 L24.3982716,31.2849162 C23.3271557,31.2849162 22.4427481,30.4468027 22.4427481,29.4131293 L22.4427481,10.0247692 C22.4427481,8.98643969 23.3271557,8.14832614 24.3982716,8.14832614 L42.5188007,8.14832614 C43.437602,3.51076452 47.7368056,0 52.9007634,0 C58.0450676,0 62.3639247,3.51076452 63.282726,8.14832614 L81.4032551,8.14832614 C82.4792844,8.14832614 83.3587786,8.98643969 83.3587786,10.0247692 L83.3587786,29.4131293 C83.3587786,30.4468027 82.4792844,31.2849162 81.4032551,31.2849162 Z M26.3587084,27.5553109 L79.4280782,27.5553109 L79.4280782,11.8779314 L61.4991706,11.8779314 C60.4034879,11.8779314 59.5239937,11.0398179 59.5239937,10.0247692 C59.5436472,6.55125422 56.5661415,3.72960528 52.9007634,3.72960528 C49.2353852,3.72960528 46.2627929,6.55125422 46.2627929,10.0247692 C46.2627929,11.0398179 45.3783853,11.8779314 44.3023561,11.8779314 L26.3587084,11.8779314 L26.3587084,27.5553109 Z" id="Fill-4" fill="#000000"></path>
            <path d="M46.0749789,104.022346 C45.3146631,104.022346 44.6079592,103.575396 44.3009086,102.890707 L35.0698942,82.6067894 L18.7913366,82.6067894 C17.7044748,82.6067894 16.8320611,81.7556827 16.8320611,80.7143846 C16.8320611,79.6540672 17.7044748,78.7982057 18.7913366,78.7982057 L36.3273397,78.7982057 C37.1071508,78.7982057 37.7943594,79.2451556 38.1160315,79.9345996 L45.8849,96.9662437 L59.8386456,58.3716443 C60.1067057,57.644162 60.7890405,57.1449095 61.5883469,57.1068712 C62.3876533,57.0117755 63.1138524,57.4967637 63.4550198,58.200472 L73.3196308,78.8172249 L87.0248116,78.8172249 C88.1116734,78.8172249 88.9694656,79.6540672 88.9694656,80.7143846 C88.9694656,81.7556827 88.1116734,82.6067894 87.0248116,82.6067894 L72.0816806,82.6067894 C71.3164909,82.6067894 70.6341561,82.1788587 70.3076102,81.5131886 L61.9343881,64.0155755 L47.9221566,102.757573 C47.6540965,103.485056 46.9668879,103.984308 46.1675815,104.022346 C46.128591,104.022346 46.1139695,104.022346 46.0749789,104.022346 Z" id="Fill-5" fill="#000000"></path>
        </g>
    </g>
</svg>