<?xml version="1.0" encoding="UTF-8"?>
<svg width="105px" height="140px" viewBox="0 0 105 140" version="1.1" xmlns="http://www.w3.org/2000/svg" xmlns:xlink="http://www.w3.org/1999/xlink">
    <!-- Generator: Sketch 52.3 (67297) - http://www.bohemiancoding.com/sketch -->
    <title>4211 youth</title>
    <desc>Created with Sketch.</desc>
    <defs>
        <polygon id="path-1" points="0.0189473684 0.136768653 53.8323158 0.136768653 53.8323158 92.234044 0.0189473684 92.234044"></polygon>
    </defs>
    <g id="4211-youth" stroke="none" stroke-width="1" fill="none" fill-rule="evenodd">
        <g id="youth">
            <g id="Group-3">
                <mask id="mask-2" fill="white">
                    <use xlink:href="#path-1"></use>
                </mask>
                <g id="Clip-2"></g>
                <path d="M26.2831579,91.5502008 C28.5874737,91.5502008 30.7537895,90.5791433 32.382,88.8148277 C33.4983158,87.6085282 34.2075789,86.1392909 34.5827368,84.5968824 L39.1121053,89.498671 C40.7393684,91.2629866 42.9066316,92.234044 45.2084211,92.234044 C47.5127368,92.234044 49.6774737,91.2629866 51.3047368,89.498671 C52.9354737,87.7367488 53.8323158,85.3901406 53.8323158,82.8978739 C53.8323158,80.4028717 52.9354737,78.0589989 51.3047368,76.2943414 L47.4142105,72.0804992 C48.8671579,71.6650644 50.2117895,70.877277 51.3047368,69.6925185 C52.9354737,67.9282029 53.8323158,65.5839882 53.8323158,63.088986 C53.8323158,60.5967193 52.9354737,58.2501111 51.3047368,56.4885309 L45.888,50.6221814 C47.3425263,50.2067466 48.6884211,49.4189592 49.7813684,48.2342008 C51.4108421,46.4726205 52.3076842,44.1284058 52.3076842,41.6334037 C52.3076842,39.1384015 51.4108421,36.7945287 49.7813684,35.0329485 L34.4927368,18.4764192 L34.4927368,2.47140955 C34.4927368,1.18270692 33.5267368,0.136768653 32.3362105,0.136768653 C31.1472632,0.136768653 30.1812632,1.18270692 30.1812632,2.47140955 L30.1812632,14.8889775 C27.0568421,13.5718953 23.2585263,14.2355652 20.8187368,16.8748583 C18.1430526,19.7757214 17.6336842,24.1061589 19.2211579,27.5934176 C17.5484211,27.9137982 15.9571579,28.739197 14.7198947,30.0815813 C12.0641053,32.9598776 11.5424211,37.247233 13.0856842,40.7238921 C11.4066316,41.0712845 9.85863158,41.94592 8.62263158,43.2842013 C5.96684211,46.1624976 5.44357895,50.4525883 6.98936842,53.9278798 C5.30810526,54.2752721 3.76231579,55.1512754 2.52631579,56.4885309 C0.896842105,58.2514788 0,60.5967193 0,63.088986 C0,65.5839882 0.896842105,67.9282029 2.52631579,69.6925185 L20.1871579,88.8148277 C21.8141053,90.5791433 23.9804211,91.5502008 26.2831579,91.5502008 Z M23.8654737,20.1750859 C24.6808421,19.2963473 25.7627368,18.8101347 26.9147368,18.8101347 C28.0670526,18.8101347 29.1502105,19.2963473 29.9655789,20.1750859 L30.8115789,21.0928035 L46.7330526,38.3331761 C47.5471579,39.2160177 47.9962105,40.3874412 47.9962105,41.6334037 C47.9962105,42.8810757 47.5471579,44.0521573 46.7330526,44.9353408 C45.1035789,46.6969211 42.264,46.6969211 40.6357895,44.9353408 L23.8667368,26.779986 C22.1867368,24.9582276 22.1867368,21.9971863 23.8654737,20.1750859 Z M17.7669474,33.3818089 C18.5823158,32.5003349 19.6664211,32.0141224 20.8174737,32.0141224 C21.9694737,32.0141224 23.0513684,32.5003349 23.8654737,33.3818089 L48.2564211,59.7887585 C49.0721053,60.6716001 49.5195789,61.8430236 49.5195789,63.088986 C49.5195789,64.3380258 49.0721053,65.510475 48.2564211,66.391949 C46.6294737,68.1552389 43.7873684,68.1552389 42.1604211,66.391949 L20.8174737,43.2842013 L20.8136842,43.2790725 L17.7669474,39.9839737 C16.0878947,38.1635829 16.0878947,35.2011739 17.7669474,33.3818089 Z M11.6706316,46.5847708 C12.486,45.7046645 13.5678947,45.2198196 14.7211579,45.2198196 C15.8709474,45.2198196 16.9528421,45.7019291 17.7656842,46.5806677 L48.2564211,79.5976463 C49.0721053,80.4777525 49.5195789,81.6491761 49.5195789,82.8978739 C49.5195789,84.1438363 49.0721053,85.3166275 48.2564211,86.1981014 C46.6294737,87.9610494 43.7873684,87.9610494 42.1604211,86.1981014 L32.3857895,75.6173366 C32.3857895,75.6146012 32.3832632,75.6118658 32.382,75.6104981 L11.6731579,53.1879614 C9.99189474,51.3675706 9.99189474,48.4051616 11.6706316,46.5847708 Z M4.31115789,63.088986 C4.31115789,61.8430236 4.75894737,60.6716001 5.57431579,59.7887585 C6.38968421,58.9100199 7.47157895,58.4238073 8.62263158,58.4238073 C9.77589474,58.4238073 10.8577895,58.9100199 11.6706316,59.7887585 L29.34,78.9202995 C31.0127368,80.7406903 31.0127368,83.6966028 29.334,85.5142582 C27.7054737,87.2772061 24.8646316,87.2785738 23.2338947,85.5142582 L5.57431579,66.3933167 C4.75894737,65.510475 4.31115789,64.3380258 4.31115789,63.088986 Z" id="Fill-1" fill="#000000" mask="url(#mask-2)"></path>
            </g>
            <path d="M96.4990936,57.5538363 C96.4990936,58.8238327 97.5059967,59.8550725 98.7495468,59.8550725 C99.9921081,59.8550725 101,58.8238327 101,57.5538363 C101,40.9137134 94.211067,31.1064814 90.1544504,25.2471644 C88.9712156,23.5374242 87.499588,21.4098598 87.499588,20.7195564 L87.499588,2.3025851 C87.499588,1.03157701 86.4916961,0 85.2491348,0 C84.0055848,0 83,1.03157701 83,2.3025851 L83,20.7195564 C83,22.8734245 84.4600919,24.987837 86.4851043,27.9095706 C90.4725065,33.671429 96.4990936,42.377278 96.4990936,57.5538363 Z" id="Fill-4" fill="#000000"></path>
            <path d="M33.4998169,130.869565 C32.1199385,130.869565 31,131.892305 31,133.152425 L31,137.716806 C31,138.97726 32.1199385,140 33.4998169,140 C34.8800615,140 36,138.97726 36,137.716806 L36,133.152425 C36,131.892305 34.8800615,130.869565 33.4998169,130.869565 Z" id="Fill-5" fill="#000000"></path>
            <path d="M90.9875106,61.2852952 C85.8736191,57.6371607 69.8157642,47.6695465 69.0148777,47.1784253 C67.5630917,46.403742 65.9498546,46.5100778 64.4757776,47.487208 C61.2973884,49.5893841 59.348193,55.3567358 59.348193,58.5679394 C59.348193,63.0371086 62.2788327,65.7544644 65.3823875,68.6299606 C66.4584096,69.6258359 67.5694606,70.6592013 68.6801931,71.845254 L79.550596,83.4798175 C80.2696424,84.2517742 80.9501572,84.980106 81.0434612,85.1985715 C81.0832667,85.3287646 81.0870881,85.8243165 81.0870881,86.3099846 C80.5743933,87.7813035 76.5591335,92.6952425 73.1021059,96.3989306 L49.1220022,119.735881 C48.489891,120.401502 47.1540186,121.387834 46.3044101,121.387834 L26.7401688,121.387834 C24.341649,121.387834 22.3911797,119.300313 22.3911797,116.7336 C22.3911797,114.166886 24.341649,112.080728 26.7401688,112.080728 L41.9570133,112.080728 C44.9436991,112.080728 47.5520735,109.379391 47.8418575,109.071972 L63.058702,92.7855597 C63.9073551,91.8762526 63.9073551,90.4052746 63.058702,89.4959676 C62.2090935,88.5852972 60.8321418,88.5852972 59.9850809,89.4959676 L44.7742869,105.775563 C44.1412203,106.441184 42.8066217,107.427517 41.9570133,107.427517 L20.2181182,107.427517 C17.8199168,107.427517 15.8694475,105.339996 15.8694475,102.773282 C15.8694475,100.207932 17.8199168,98.1204111 20.2181182,98.1204111 L37.6092979,98.1204111 C38.8085579,98.1204111 39.7826779,97.0778435 39.7826779,95.7946572 C39.7826779,94.5097668 38.8085579,93.4671992 37.6092979,93.4671992 L13.696386,93.4671992 C11.2978661,93.4671992 9.34739688,91.3796783 9.34739688,88.8143281 C9.34739688,87.6640615 9.74194894,86.5642362 10.4546265,85.7121868 C11.2571053,84.7538017 11.1809972,83.2838462 10.2868065,82.4253212 C9.3910237,81.5664555 8.01789337,81.650638 7.21796215,82.6062965 C5.7875119,84.3144851 5,86.5178847 5,88.8143281 C5,93.6110251 8.41945119,97.5253398 12.7808596,98.0232775 C11.9984428,99.4182527 11.5220507,101.032034 11.5220507,102.773282 C11.5220507,107.571343 14.9415018,111.485657 19.3025918,111.983595 C18.520175,113.37857 18.0437829,114.990988 18.0437829,116.7336 C18.0437829,121.867367 21.9434475,126.041046 26.7388951,126.041046 L46.3044101,126.041046 C49.291096,126.041046 51.8994704,123.339709 52.1147385,123.109314 L76.1024848,99.7658888 C85.4344849,89.776803 85.4344849,87.3021109 85.4344849,86.4872109 C85.4344849,83.3997249 85.0813306,82.8179456 82.6245355,80.1885213 L71.7538142,68.5556619 C70.5348107,67.2482774 69.3081646,66.1150517 68.2286396,65.1113376 C65.2505517,62.3503569 63.6955899,60.8057618 63.6955899,58.5665761 C63.6955899,55.6310957 66.0355161,51.3388119 66.9523162,51.2737153 C67.1179071,51.3745979 83.5734985,61.5872615 88.5765714,65.1566666 C94.1980626,69.1667517 100.652603,75.4824823 100.652603,88.8129648 C100.652603,98.799324 93.3159728,112.338729 88.4609763,121.296153 C84.9915294,127.697089 83.32352,130.868417 83.32352,133.019671 L83.32352,137.673905 C83.32352,138.957432 84.29764,140 85.4978553,140 C86.698389,140 87.6721906,138.957432 87.6721906,137.673905 L87.6721906,133.046255 C87.760718,131.864292 90.1302595,127.48953 92.221481,123.632473 C97.6124187,113.680877 105,100.053541 105,88.8129648 C105,73.0994707 97.0016432,65.5772382 90.9875106,61.2852952 Z" id="Fill-6" fill="#000000"></path>
        </g>
    </g>
</svg>