<?xml version="1.0" encoding="UTF-8"?>
<svg width="140px" height="133px" viewBox="0 0 140 133" version="1.1" xmlns="http://www.w3.org/2000/svg" xmlns:xlink="http://www.w3.org/1999/xlink">
    <!-- Generator: Sketch 52.3 (67297) - http://www.bohemiancoding.com/sketch -->
    <title>strategic plan</title>
    <desc>Created with Sketch.</desc>
    <defs>
        <polygon id="path-1" points="-7.15006702e-15 0 140 0 140 133 -7.15006702e-15 133"></polygon>
    </defs>
    <g id="strategic-plan" stroke="none" stroke-width="1" fill="none" fill-rule="evenodd">
        <g>
            <mask id="mask-2" fill="white">
                <use xlink:href="#path-1"></use>
            </mask>
            <g id="Clip-2"></g>
            <path d="M137.953109,79.0179137 L115.828403,79.0179137 C115.259368,79.0179137 114.715987,79.2493733 114.328442,79.6568276 C113.94117,80.0642818 113.744942,80.6109318 113.787244,81.1655815 C113.929435,83.0428576 114.954245,84.7500055 116.528986,85.7326422 C118.912113,87.2197968 120.296357,89.8602496 120.14052,92.6222986 C119.923822,96.4251159 116.708839,99.5906194 112.821112,99.8287454 C110.623843,99.9636746 108.539289,99.231697 106.945443,97.7688083 C105.349414,96.304053 104.470616,94.3193135 104.470616,92.1801788 C104.470616,89.5685251 105.816924,87.1637985 108.076419,85.7454418 C109.660166,84.7454723 110.692891,83.0353911 110.839448,81.170648 C110.883115,80.6151983 110.687706,80.067215 110.300434,79.6586942 C109.912889,79.2499066 109.368689,79.0176471 108.798562,79.0176471 L86.7977612,79.0176471 C85.6670587,79.0176471 84.7508704,79.9130864 84.7508704,81.017586 L84.7508704,98.7127795 C82.4957426,95.997129 79.1257417,94.4099774 75.5008346,94.4099774 C72.2200781,94.4099774 69.0495808,95.7496699 66.8023676,98.0858653 C64.5221313,100.456193 63.3802392,103.557432 63.5871116,106.819465 C63.9645583,112.703019 68.7941288,117.387143 74.8204481,117.714333 C78.6585047,117.924727 82.3535519,116.305309 84.7505975,113.42913 L84.7505975,131.000061 C84.7505975,132.104561 85.6667858,133 86.7974882,133 L110.849273,133 C111.979976,133 112.896164,132.104561 112.896164,131.000061 C112.896164,129.895561 111.979976,129.000122 110.849273,129.000122 L88.844379,129.000122 L88.844379,109.519116 C88.844379,108.953 88.5987521,108.413284 88.1683592,108.034095 C87.7379663,107.654907 87.1631994,107.472246 86.5870679,107.529577 C84.7205764,107.718105 83.0852472,108.689542 82.1008292,110.194829 C80.5763049,112.524358 77.8801404,113.874717 75.0483353,113.720855 C71.1562407,113.509395 67.9166949,110.367891 67.6729785,106.570673 C67.5365191,104.423539 68.2867728,102.383067 69.7850968,100.825515 C71.2834209,99.2679625 73.3131177,98.410122 75.5005617,98.410122 C78.1727093,98.410122 80.6355283,99.7263485 82.0869103,101.928148 C83.0814263,103.442235 84.7200306,104.420872 86.5827012,104.612599 C87.1615619,104.672064 87.7355101,104.489403 88.1669946,104.110215 C88.5982063,103.731026 88.844379,103.19051 88.844379,102.623593 L88.844379,83.017525 L104.94413,83.017525 C102.064837,85.2171912 100.376562,88.5680223 100.376562,92.1801788 C100.376562,95.3880809 101.74907,98.487453 104.142568,100.684186 C106.569088,102.910785 109.739313,104.023284 113.077109,103.820624 C119.098789,103.451568 123.892607,98.7327789 124.227751,92.8430919 C124.443357,89.0210752 122.720694,85.3526538 119.678741,83.017525 L135.906218,83.017525 L135.906218,117.875661 C135.906218,124.009608 130.798817,128.999855 124.520866,128.999855 L119.035472,128.999855 C117.904769,128.999855 116.988581,129.895295 116.988581,130.999794 C116.988581,132.104294 117.904769,132.999733 119.035472,132.999733 L124.520866,132.999733 C133.055855,132.999733 140,126.21514 140,117.875661 L140,81.0178527 C140,79.9133531 139.083812,79.0179137 137.953109,79.0179137" id="Fill-1" fill="#0A090B" mask="url(#mask-2)"></path>
            <path d="M55.5643044,34.8264268 C57.8333835,37.5669798 61.2228668,39.1687728 64.8670622,39.1687728 C68.1659689,39.1687728 71.353988,37.8175876 73.6142839,35.461551 C75.9080657,33.0705584 77.0567406,29.9436068 76.8484146,26.6555885 C76.4688167,20.720323 71.6117193,15.9956118 65.5491308,15.6651429 C61.685356,15.4591711 57.9741889,17.091349 55.5643044,19.9905486 L55.5643044,4.03338842 L91.4441349,4.03338842 C97.7578674,4.03338842 102.89438,9.06544382 102.89438,15.2507794 L102.89438,50.4009528 L82.7021282,50.4009528 C82.1298493,50.4009528 81.5833709,50.6343516 81.1936174,51.0452194 C80.8041384,51.4560873 80.6067913,52.007317 80.6493349,52.5666135 C80.792336,54.4596172 81.8232615,56.1810674 83.4069782,57.1719364 C85.8036879,58.6712814 87.1955471,61.3338555 87.0388223,64.1193136 C86.8211642,67.9539904 83.5878568,71.146014 79.6779703,71.386135 C77.4703734,71.523808 75.3714684,70.7840846 73.7685384,69.30894 C72.1634127,67.8319132 71.2796054,65.8305458 71.2796054,63.6737586 C71.2796054,61.0402248 72.6338617,58.6153517 74.9062344,57.1851122 C76.4987344,56.1767651 77.5373452,54.4523571 77.6847379,52.5719914 C77.7286538,52.0118882 77.5321302,51.459314 77.1426511,51.0473706 C76.7528976,50.6351583 76.2055958,50.4009528 75.632219,50.4009528 L55.5645789,50.4009528 L55.5645789,34.8264268 L55.5643044,34.8264268 Z M42.1444321,69.9556266 C44.8320845,69.9556266 47.3086662,71.2828803 48.7683206,73.5031262 C49.7685049,75.0298981 51.4164487,76.0167338 53.2897358,76.2100676 C53.8697001,76.2700306 54.4491153,76.0858392 54.8827847,75.703474 C55.3164541,75.3211088 55.56403,74.7760636 55.56403,74.204398 L55.56403,54.4340724 L71.7558183,54.4340724 C68.8601144,56.6518982 67.1619418,60.0308022 67.1619418,63.6734897 C67.1619418,66.9082672 68.5422731,70.0336054 70.9494128,72.2484735 C73.1995532,74.3192151 76.0878463,75.435657 79.1542733,75.4353881 C79.4133771,75.4353881 79.6741277,75.4273213 79.9354272,75.4114567 C85.9914283,75.0393094 90.8125695,70.2809866 91.1493495,64.3419566 C91.3661842,60.4876506 89.6339769,56.7887645 86.5746862,54.4340724 L104.952937,54.4340724 C106.090084,54.4340724 107.011494,53.5311312 107.011494,52.4173782 L107.011494,15.2507794 C107.011494,6.84143344 100.028044,0 91.4441349,0 L28.973508,0 C27.8366354,0 26.9149506,0.902941222 26.9149506,2.01669421 C26.9149506,3.1304472 27.8366354,4.03338842 28.973508,4.03338842 L51.4471898,4.03338842 L51.4471898,23.9333202 C51.4471898,24.5041791 51.6942167,25.0481488 52.1267882,25.4307829 C52.5596342,25.8131481 53.1385005,25.9981462 53.7168179,25.9395276 C55.5939477,25.7496895 57.2388722,24.7701139 58.22945,23.2519465 C59.762389,20.9034388 62.4818804,19.5412291 65.3215916,19.6926156 C68.5019254,19.8657824 71.2494132,21.9905715 72.2992775,24.8362614 C72.3396252,24.9457007 72.3775026,25.0562156 72.4129098,25.167806 C72.5539896,25.6138987 72.6538983,26.0758562 72.7076952,26.549376 C72.7211445,26.6676887 72.731849,26.7868081 72.7395343,26.9064653 C72.8764969,29.0707815 72.1219671,31.1278096 70.6145542,32.6989488 C69.1074157,34.2698192 67.0661503,35.1351154 64.8673366,35.1351154 C62.1813311,35.1351154 59.7044749,33.8065173 58.2415268,31.5808936 C57.2383232,30.0554661 55.5909284,29.0697059 53.7217584,28.8766411 C53.5765615,28.8615831 53.4316391,28.861852 53.2889124,28.8766411 C52.8607325,28.9210084 52.4539616,29.0965952 52.1287095,29.3832347 C51.8034575,29.670143 51.5827801,30.048206 51.4927526,30.4606872 C51.4628349,30.5980913 51.4471898,30.7392599 51.4471898,30.8823107 L51.4471898,50.400684 L48.2210188,50.400684 C47.0841462,50.400684 46.1624615,51.3036252 46.1624615,52.4173782 C46.1624615,53.5311312 47.0841462,54.4340724 48.2210188,54.4340724 L51.4471898,54.4340724 L51.4471898,70.2605508 C49.1792086,67.5226867 45.7897254,65.9217004 42.1444321,65.9217004 C38.8449764,65.9217004 35.6564084,67.2726166 33.396387,69.6281155 C31.1031541,72.0185703 29.9544791,75.1455219 30.1628051,78.4348846 C30.5426776,84.367999 35.3997749,89.0910969 41.4601676,89.421028 C45.3239425,89.633722 49.035933,87.9999308 51.4469153,85.0996557 L51.4469153,100.801099 L15.5673593,100.801099 C9.25362682,100.801906 4.11711462,95.7698503 4.11711462,89.5845147 L4.11711462,54.4343413 L24.2821931,54.4343413 C24.8761555,54.4343413 25.4410236,54.1829267 25.831875,53.7451696 C26.2227264,53.3074125 26.4014092,52.7249913 26.3220861,52.1484856 C26.0802743,50.390466 25.0907944,48.8480983 23.6047905,47.91531 C21.2080808,46.4159651 19.8162216,43.7550043 19.972672,40.9716974 C20.1903301,37.1370206 23.4239119,33.944997 27.3340729,33.7048759 C29.5419442,33.5674718 31.6411238,34.3071953 33.2443282,35.7823398 C34.848905,37.2588289 35.7324378,39.2585829 35.7324378,41.413219 C35.7324378,44.0491728 34.3781816,46.4753903 32.1060832,47.9056299 C30.6184325,48.8470227 29.6218163,50.3896594 29.3720446,52.1379988 C29.2894279,52.7158489 29.4664638,53.3006902 29.8575897,53.7408674 C30.2484411,54.1813134 30.8149561,54.4340724 31.4108398,54.4340724 L39.987613,54.4340724 C41.1244856,54.4340724 42.0461703,53.5311312 42.0461703,52.4173782 C42.0461703,51.3036252 41.1244856,50.400684 39.987613,50.400684 L35.5781832,50.400684 C38.2770891,48.1828581 39.8498269,44.9203847 39.8498269,41.413219 C39.8498269,38.1805926 38.4697701,35.0565988 36.0634538,32.8422686 C33.6228283,30.5964779 30.4323389,29.4738515 27.0768905,29.6790165 C21.0206149,30.0508949 16.1994737,34.8092177 15.8624192,40.7485166 C15.6535443,44.4667629 17.2600424,48.0406139 20.1208881,50.400684 L4.11711462,50.400684 L4.11711462,15.2507794 C4.11711462,9.06544382 9.25362682,4.03338842 15.5673593,4.03338842 L20.7395532,4.03338842 C21.8764258,4.03338842 22.7981105,3.1304472 22.7981105,2.01669421 C22.7981105,0.902941222 21.8764258,0 20.7395532,0 L15.5673593,0 C6.98344982,0 0,6.84143344 0,15.2507794 L0,89.5845147 C0,97.9938607 6.98344982,104.835294 15.5673593,104.835294 L53.5057471,104.835294 C54.6426197,104.835294 55.5643044,103.932353 55.5643044,102.8186 L55.5643044,81.1576907 C55.5643044,80.5868318 55.3172776,80.0425933 54.8844316,79.660228 C54.4515856,79.2778628 53.8735427,79.0934025 53.2941274,79.1514833 C51.4169976,79.3415904 49.7720731,80.321166 48.7820443,81.8390645 C47.2491053,84.187841 44.5320841,85.5497818 41.6899026,85.3946308 C37.7756245,85.181399 34.51734,82.0135757 34.2722345,78.1845457 C34.1349973,76.0191539 34.8898017,73.961588 36.3966656,72.3909865 C37.9035296,70.820654 39.944795,69.9556266 42.1444321,69.9556266 Z" id="Fill-3" fill="#0A090B" mask="url(#mask-2)"></path>
        </g>
    </g>
</svg>