<?xml version="1.0" encoding="UTF-8"?>
<svg width="250px" height="250px" viewBox="0 0 250 250" version="1.1" xmlns="http://www.w3.org/2000/svg" xmlns:xlink="http://www.w3.org/1999/xlink">
    <!-- Generator: Sketch 52.3 (67297) - http://www.bohemiancoding.com/sketch -->
    <title>research</title>
    <desc>Created with Sketch.</desc>
    <g id="research" stroke="none" stroke-width="1" fill="none" fill-rule="evenodd">
        <g id="research-orange">
            <circle id="Oval" fill="#F7911D" cx="125" cy="125" r="125"></circle>
            <path d="M143.464444,82.5881563 C126.680756,65.8039479 99.3612228,65.8039479 82.5775348,82.5881563 C65.8074884,99.3769119 65.8074884,126.674556 82.5775348,143.463311 C97.5332513,158.401302 120.801236,160.001964 137.566735,148.328958 C137.925963,149.99783 138.739911,151.598491 140.035861,152.894481 L164.458832,177.336399 C168.032926,180.887867 173.785124,180.887867 177.32284,177.336399 C180.892387,173.784932 180.892387,168.028007 177.32284,164.47654 L152.895322,140.034622 C151.599372,138.738632 150.003307,137.938301 148.334487,137.583609 C160.002584,120.794853 158.401972,97.5261472 143.464444,82.5881563 Z M136.363997,136.244656 C123.759289,148.841665 103.236591,148.841665 90.6318835,136.244656 C78.0271757,123.624768 78.0271757,103.120882 90.6318835,90.5009943 C103.236591,77.9039852 123.759289,77.9039852 136.363997,90.5009943 C148.968705,103.120882 148.968705,123.624768 136.363997,136.244656 Z" id="magnifying-glass" stroke="#F7911D" stroke-width="4" fill="#FFFFFF" transform="translate(125.000000, 125.000000) rotate(11.000000) translate(-125.000000, -125.000000) "></path>
        </g>
    </g>
</svg>