<?xml version="1.0" encoding="UTF-8"?>
<svg width="73px" height="72px" viewBox="0 0 73 72" version="1.1" xmlns="http://www.w3.org/2000/svg" xmlns:xlink="http://www.w3.org/1999/xlink">
    <!-- Generator: Sketch 52.3 (67297) - http://www.bohemiancoding.com/sketch -->
    <title>facebook</title>
    <desc>Created with Sketch.</desc>
    <g id="Page-1" stroke="none" stroke-width="1" fill="none" fill-rule="evenodd">
        <g id="facebook">
            <g id="facebook-Copy-1" transform="translate(-0.000000, -0.000000)">
                <g id="facebook" transform="translate(0.049437, 0.000000)">
                    <path d="M72.3269339,35.8297198 C72.3269339,55.452978 56.1352027,71.3621873 36.1634669,71.3621873 C16.1917312,71.3621873 0,55.452978 0,35.8297198 C0,16.2064615 16.1917312,0.297252221 36.1634669,0.297252221 C56.1352027,0.297252221 72.3269339,16.2064615 72.3269339,35.8297198 Z" id="Fill-1" fill="#FFFFFF"></path>
                    <path d="M45.157135,36.7212751 L38.748555,36.7212751 L38.748555,60.1414081 L29.0396523,60.1414081 L29.0396523,36.7212751 L24.4220816,36.7212751 L24.4220816,28.4879839 L29.0396523,28.4879839 L29.0396523,23.1622508 C29.0396523,19.354164 30.8522689,13.3881613 38.836585,13.3881613 L46.0262307,13.4192966 L46.0262307,21.4090938 L40.809256,21.4090938 C39.9521644,21.4090938 38.748555,21.8362063 38.748555,23.6516338 L38.748555,28.497564 L46.0078244,28.497564 L45.157135,36.7212751 Z" id="Fill-2" fill="#2C2C2C"></path>
                </g>
            </g>
        </g>
    </g>
</svg>