<?xml version="1.0" encoding="UTF-8"?>
<svg width="219px" height="225px" viewBox="0 0 219 225" version="1.1" xmlns="http://www.w3.org/2000/svg" xmlns:xlink="http://www.w3.org/1999/xlink">
    <!-- Generator: Sketch 52.3 (67297) - http://www.bohemiancoding.com/sketch -->
    <title>green pdf</title>
    <desc>Created with Sketch.</desc>
    <g id="Page-1" stroke="none" stroke-width="1" fill="none" fill-rule="evenodd">
        <g id="Contact-Us" transform="translate(-292.000000, -2466.000000)">
            <rect fill="#FFFFFF" x="0" y="0" width="1440" height="3309"></rect>
            <g id="green-pdf" transform="translate(392.000000, 2566.000000)" fill="#A1B426">
                <g id="noun_PDF-File_929117">
                    <path d="M18.2953601,6.51779846 C18.2313958,6.526809 18.1679472,6.53740963 18.0977927,6.53740963 C18.0518828,6.53740963 18.0116472,6.52786906 17.9683165,6.52415884 L17.9683165,22.8804037 C17.9683165,23.4644985 17.5061222,23.9404669 16.9366329,23.9404669 L2.06336709,23.9404669 C1.49439361,23.9404669 1.03168354,23.4644985 1.03168354,22.8804037 L1.03168354,2.12012636 C1.03168354,1.53550152 1.49439361,1.06006318 2.06336709,1.06006318 L13.679608,1.06006318 C13.3427633,0.819428838 13.1684088,0.413954672 13.1565444,0 L2.06336709,0 C0.925935981,0 0,0.950876672 0,2.12012636 L0,22.8798736 C0,24.0485933 0.925935981,25 2.06336709,25 L16.9366329,25 C18.0750957,25 19,24.0485933 19,22.8798736 L19,6.9312231 C18.6951375,6.87715988 18.4604295,6.72557084 18.2953601,6.51779846 Z" id="Path"></path>
                    <path d="M18.5011438,6.99977974 C18.4991817,6.99977974 18.4952576,7.00027532 18.490843,6.99977974 L13.4993459,6.99977974 C13.2231851,6.99977974 13,6.77776223 13,6.50420493 L13,0.495855943 C13,0.286723374 13.1324395,0.100387245 13.3306082,0.0295200474 C13.5277959,-0.0418427252 13.7499999,0.0191129764 13.8844015,0.180670364 L18.8248848,6.1270725 C18.9327984,6.21825827 18.9999992,6.35355019 18.9999992,6.50470051 C19.0004897,6.77776223 18.7773047,6.99977974 18.5011438,6.99977974 Z M13.9986918,6.00863013 L17.4327986,6.00863013 L13.9986918,1.87553621 L13.9986918,6.00863013 Z" id="Shape" fill-rule="nonzero"></path>
                    <path d="M14.8826064,16 L5.11792289,16 C3.94988842,16 3,15.0610841 3,13.9065421 L3,11.0934579 C3,9.93891589 3.94988842,9 5.11792289,9 L14.8820769,9 C16.0501114,9 16.9999998,9.93891589 16.9999998,11.0934579 L16.9999998,13.9065421 C17.0005293,15.0610841 16.0506408,16 14.8826064,16 Z M5.11792289,10.046729 C4.53390565,10.046729 4.05896144,10.5161869 4.05896144,11.0934579 L4.05896144,13.9065421 C4.05896144,14.4838131 4.53390565,14.953271 5.11792289,14.953271 L14.8820769,14.953271 C15.4660941,14.953271 15.9410383,14.4838131 15.9410383,13.9065421 L15.9410383,11.0934579 C15.9410383,10.5161869 15.4660941,10.046729 14.8820769,10.046729 L5.11792289,10.046729 Z" id="Shape" fill-rule="nonzero"></path>
                    <path d="M6.40210143,11.0004575 C6.68215801,11.0004575 6.92220651,11.0256215 7.12345928,11.0759494 C7.32410588,11.1258197 7.48959386,11.1949062 7.61931703,11.2827513 C7.74964639,11.3705963 7.84542332,11.4739973 7.90786017,11.5934116 C7.96969085,11.712826 8,11.8418484 8,11.9804789 C8,12.13009 7.9678723,12.2673479 7.90482926,12.3922526 C7.84118004,12.5171572 7.74358456,12.6246759 7.6132552,12.713436 C7.48292584,12.8021961 7.3162255,12.8721977 7.1155789,12.922068 C6.91493231,12.9723959 6.67670236,12.9975599 6.40210143,12.9975599 L5.92200445,12.9975599 L5.92200445,14 L5,14 L5,11 L6.40210143,11 L6.40210143,11.0004575 Z M6.40210143,12.4727772 C6.64214993,12.4727772 6.8149121,12.4293122 6.92038796,12.3432972 C7.02586381,12.2568248 7.07860174,12.1355803 7.07860174,11.9809364 C7.07860174,11.9123075 7.06526571,11.8496264 7.03798747,11.7933506 C7.01070923,11.7370749 6.96948879,11.6885771 6.91371994,11.6483148 C6.8579511,11.6080525 6.78824005,11.5764831 6.70337442,11.5545219 C6.61850879,11.5325606 6.51848858,11.52158 6.40210143,11.52158 L5.92200445,11.52158 L5.92200445,12.4727772 L6.40210143,12.4727772 Z" id="Shape" fill-rule="nonzero"></path>
                    <path d="M12,12.4988562 C12,12.7157237 11.9586555,12.9156627 11.8759664,13.0991307 C11.7937815,13.2821412 11.6773109,13.4409029 11.5280672,13.5749581 C11.3783193,13.7085557 11.1983193,13.8128717 10.9870588,13.8879061 C10.7757983,13.9629404 10.5418487,14 10.2847059,14 L9,14 L9,11 L10.2847059,11 C10.5418487,11 10.7757983,11.0379747 10.9870588,11.1134665 C11.1983193,11.1889584 11.3783193,11.2932744 11.5280672,11.4264145 C11.6778151,11.5595547 11.7937815,11.7178588 11.8759664,11.9008693 C11.9586555,12.0843373 12,12.2833613 12,12.4988562 Z M11.2144538,12.4988562 C11.2144538,12.3506177 11.1932773,12.2165625 11.1509244,12.0971481 C11.1085714,11.9777337 11.047563,11.8766204 10.9684034,11.7933506 C10.8892437,11.7100808 10.7914286,11.6464847 10.6769748,11.6021046 C10.562521,11.5577246 10.4314286,11.5353058 10.2847059,11.5353058 L9.77142857,11.5353058 L9.77142857,13.4646942 L10.2847059,13.4646942 C10.4314286,13.4646942 10.562521,13.4422754 10.6769748,13.3978954 C10.7919328,13.3535153 10.8892437,13.2894616 10.9684034,13.2061919 C11.047563,13.1233796 11.1085714,13.0222663 11.1509244,12.9028519 C11.1932773,12.7834375 11.2144538,12.6480098 11.2144538,12.4988562 Z" id="Shape" fill-rule="nonzero"></path>
                    <polygon id="Path" points="12.7244729 11.5353058 12.7244729 12.295257 13.7863066 12.295257 13.7863066 12.8323929 12.7244729 12.8323929 12.7244729 14 12 14 12 11 14 11 14 11.5353058"></polygon>
                </g>
            </g>
        </g>
    </g>
</svg>