<svg width="19" height="25" viewBox="0 0 19 25" fill="none" xmlns="http://www.w3.org/2000/svg">
<path fill-rule="evenodd" clip-rule="evenodd" d="M18.2954 6.5178C18.2314 6.52681 18.1679 6.53741 18.0978 6.53741C18.0519 6.53741 18.0116 6.52787 17.9683 6.52416V22.8804C17.9683 23.4645 17.5061 23.9405 16.9366 23.9405H2.06337C1.49439 23.9405 1.03168 23.4645 1.03168 22.8804V2.12013C1.03168 1.5355 1.49439 1.06006 2.06337 1.06006H13.6796C13.3428 0.819429 13.1684 0.413955 13.1565 0H2.06337C0.925936 0 0 0.950877 0 2.12013V22.8799C0 24.0486 0.925936 25 2.06337 25H16.9366C18.0751 25 19 24.0486 19 22.8799V6.93122C18.6951 6.87716 18.4604 6.72557 18.2954 6.5178Z" fill="#A1B426"/>
<path fill-rule="evenodd" clip-rule="evenodd" d="M18.4991 6.99986C18.4999 6.99982 18.5006 6.99978 18.5011 6.99978C18.7773 6.99978 19.0005 6.77776 19 6.5047C19 6.35355 18.9328 6.21826 18.8249 6.12707L13.8844 0.18067C13.75 0.019113 13.5278 -0.0418427 13.3306 0.02952C13.1324 0.100387 13 0.286723 13 0.495856V6.5042C13 6.77776 13.2232 6.99978 13.4993 6.99978H18.4908C18.494 7.00014 18.497 6.99998 18.4991 6.99986ZM17.4328 6.00863H13.9987V1.87554L17.4328 6.00863Z" fill="#A1B426"/>
<path fill-rule="evenodd" clip-rule="evenodd" d="M5.11792 16H14.8826C16.0506 16 17.0005 15.0611 17 13.9065V11.0935C17 9.93892 16.0501 9 14.8821 9H5.11792C3.94989 9 3 9.93892 3 11.0935V13.9065C3 15.0611 3.94989 16 5.11792 16ZM4.05896 11.0935C4.05896 10.5162 4.53391 10.0467 5.11792 10.0467H14.8821C15.4661 10.0467 15.941 10.5162 15.941 11.0935V13.9065C15.941 14.4838 15.4661 14.9533 14.8821 14.9533H5.11792C4.53391 14.9533 4.05896 14.4838 4.05896 13.9065V11.0935Z" fill="#A1B426"/>
<path fill-rule="evenodd" clip-rule="evenodd" d="M7.12346 11.0759C6.92221 11.0256 6.68216 11.0005 6.4021 11.0005V11H5V14H5.922V12.9976H6.4021C6.6767 12.9976 6.91493 12.9724 7.11558 12.9221C7.31623 12.8722 7.48293 12.8022 7.61326 12.7134C7.74358 12.6247 7.84118 12.5172 7.90483 12.3923C7.96787 12.2673 8 12.1301 8 11.9805C8 11.8418 7.96969 11.7128 7.90786 11.5934C7.84542 11.474 7.74965 11.3706 7.61932 11.2828C7.48959 11.1949 7.32411 11.1258 7.12346 11.0759ZM6.92039 12.3433C6.81491 12.4293 6.64215 12.4728 6.4021 12.4728H5.922V11.5216H6.4021C6.51849 11.5216 6.61851 11.5326 6.70337 11.5545C6.78824 11.5765 6.85795 11.6081 6.91372 11.6483C6.96949 11.6886 7.01071 11.7371 7.03799 11.7934C7.06527 11.8496 7.0786 11.9123 7.0786 11.9809C7.0786 12.1356 7.02586 12.2568 6.92039 12.3433Z" fill="#A1B426"/>
<path fill-rule="evenodd" clip-rule="evenodd" d="M11.876 13.0991C11.9587 12.9157 12 12.7157 12 12.4989C12 12.2834 11.9587 12.0843 11.876 11.9009C11.7938 11.7179 11.6778 11.5596 11.5281 11.4264C11.3783 11.2933 11.1983 11.189 10.9871 11.1135C10.7758 11.038 10.5418 11 10.2847 11H9V14H10.2847C10.5418 14 10.7758 13.9629 10.9871 13.8879C11.1983 13.8129 11.3783 13.7086 11.5281 13.575C11.6773 13.4409 11.7938 13.2821 11.876 13.0991ZM11.1509 12.0971C11.1933 12.2166 11.2145 12.3506 11.2145 12.4989C11.2145 12.648 11.1933 12.7834 11.1509 12.9029C11.1086 13.0223 11.0476 13.1234 10.9684 13.2062C10.8892 13.2895 10.7919 13.3535 10.677 13.3979C10.5625 13.4423 10.4314 13.4647 10.2847 13.4647H9.77143V11.5353H10.2847C10.4314 11.5353 10.5625 11.5577 10.677 11.6021C10.7914 11.6465 10.8892 11.7101 10.9684 11.7934C11.0476 11.8766 11.1086 11.9777 11.1509 12.0971Z" fill="#A1B426"/>
<path fill-rule="evenodd" clip-rule="evenodd" d="M12.7245 11.5353V12.2953H13.7863V12.8324H12.7245V14H12V11H14V11.5353H12.7245Z" fill="#A1B426"/>
</svg>
