<?xml version="1.0" encoding="UTF-8"?>
<svg width="154px" height="155px" viewBox="0 0 154 155" version="1.1" xmlns="http://www.w3.org/2000/svg" xmlns:xlink="http://www.w3.org/1999/xlink">
    <!-- Generator: Sketch 52.3 (67297) - http://www.bohemiancoding.com/sketch -->
    <title>hiv and sti</title>
    <desc>Created with Sketch.</desc>
    <defs>
        <polygon id="path-1" points="0 0 153.387393 0 153.387393 154.681856 0 154.681856"></polygon>
    </defs>
    <g id="hiv-and-sti" stroke="none" stroke-width="1" fill="none" fill-rule="evenodd">
        <g id="test-tube">
            <g transform="translate(0.113831, 0.000000)">
                <mask id="mask-2" fill="white">
                    <use xlink:href="#path-1"></use>
                </mask>
                <g id="Clip-2"></g>
                <path d="M150.154848,0.000522102654 L111.895794,0.000522102654 C111.000299,-0.0165328557 110.135412,0.384853607 109.496356,1.11583706 C108.857299,1.84721713 108.494748,2.84671702 108.492027,3.89063913 L108.492027,19.7342989 C108.464138,20.7956725 108.813426,21.8225397 109.457924,22.5741477 C110.101062,23.3253592 110.982953,23.7330917 111.893073,23.7005682 L111.893073,40.4548834 L95.9081543,40.4548834 L95.9081543,23.7005682 C96.8182744,23.7330917 97.7005058,23.3253592 98.3433037,22.5741477 C98.987802,21.8225397 99.3370895,20.7956725 99.3092009,19.7342989 L99.3092009,3.89063913 C99.3251858,2.85742595 98.9823603,1.85951257 98.3565677,1.12694261 C97.7321356,0.392389519 96.8781328,-0.0117733325 95.99182,0.000522102654 L57.7341268,0.000522102654 C56.8478141,-0.0117733325 55.9938112,0.392389519 55.3693791,1.12694261 C54.7435865,1.85951257 54.400761,2.85742595 54.4167459,3.89063913 L54.4167459,19.7342989 C54.3888573,20.7956725 54.7381448,21.8225397 55.3826432,22.5741477 C56.025441,23.3253592 56.9076725,23.7330917 57.8177925,23.7005682 L57.8177925,40.4548834 L41.8328734,40.4548834 L41.8328734,23.7005682 C42.7429935,23.7330917 43.625225,23.3253592 44.2680228,22.5741477 C44.9125211,21.8225397 45.2618086,20.7956725 45.2339201,19.7342989 L45.2339201,3.89063913 C45.2311992,2.84671702 44.8686476,1.84721713 44.229591,1.11583706 C43.5905343,0.384853607 42.7256482,-0.0165328557 41.8301526,0.000522102654 L3.57109895,0.000522102654 C1.6927009,0.000522102654 0,1.70165505 0,3.89063913 L0,19.7342989 C0.0625792578,21.8939325 1.54917674,23.6275889 3.40104662,23.7005682 L3.40104662,100.151997 C3.40104662,112.451795 12.0682738,122.460676 22.61696,122.460676 C33.1656462,122.460676 41.8328734,112.451795 41.8328734,100.151997 L41.8328734,64.2524998 L57.8177925,64.2524998 L57.8177925,100.151997 C57.7885435,107.625639 60.9838268,114.614602 66.3190487,118.753008 L66.3190487,130.885826 L25.8479543,130.885826 C23.9695563,130.885826 22.4469077,132.661128 22.4469077,134.852095 L22.4469077,150.717173 C22.4469077,152.907743 23.9695563,154.681856 25.8479543,154.681856 L126.857679,154.681856 C128.736417,154.681856 130.258725,152.907743 130.258725,150.717173 L130.258725,134.852095 C130.258725,132.661128 128.736417,130.885826 126.857679,130.885826 L86.7253284,130.885826 L86.7253284,119.2595 C92.4513305,115.212715 95.9374033,107.958805 95.9081543,100.151997 L95.9081543,64.2524998 L111.893073,64.2524998 L111.893073,100.151997 C111.893073,112.417685 120.419497,122.363106 130.938934,122.363106 C141.458372,122.363106 149.984796,112.417685 149.984796,100.151997 L149.984796,23.7005682 C150.894916,23.7330917 151.777147,23.3253592 152.419945,22.5741477 C153.064443,21.8225397 153.413731,20.7956725 153.385842,19.7342989 L153.385842,3.89063913 C153.385842,1.70165505 152.033586,0.000522102654 150.154848,0.000522102654 Z M115.29412,15.8640132 L146.583749,15.8640132 L146.583749,7.93147439 L115.29412,7.93147439 L115.29412,15.8640132 Z M61.2188392,15.8640132 L92.5071077,15.8640132 L92.5071077,7.93147439 L61.2188392,7.93147439 L61.2188392,15.8640132 Z M6.80209324,15.8640132 L38.4318268,15.8640132 L38.4318268,7.93147439 L6.80209324,7.93147439 L6.80209324,15.8640132 Z M22.61696,114.528137 C15.7948006,114.526551 10.2510946,108.107541 10.2031399,100.151997 L10.2031399,23.796552 L35.0307802,23.796552 L35.0307802,100.151997 C34.9828254,108.107541 29.4391194,114.526551 22.61696,114.528137 Z M41.8328734,56.319961 L57.8177925,56.319961 L57.8177925,48.3874222 L41.8328734,48.3874222 L41.8328734,56.319961 Z M29.2490009,146.750903 L123.456632,146.750903 L123.456632,138.818364 L29.2490009,138.818364 L29.2490009,146.750903 Z M79.9232352,130.885826 L73.1211419,130.885826 L73.1211419,122.029939 C75.3624316,122.5519 77.6673209,122.599892 79.9232352,122.170742 L79.9232352,130.885826 Z M76.8622932,114.528137 C73.6020499,114.520205 70.4798891,112.998744 68.1831623,110.301284 C65.8874559,107.605807 64.6052613,103.952477 64.6198858,100.151997 L64.619762,23.796552 L89.1061848,23.796552 L89.106061,100.151997 C89.1206855,103.952477 87.8388311,107.605807 85.5417642,110.301284 C83.2446973,112.998744 80.1225365,114.520205 76.8622932,114.528137 Z M95.9081543,56.319961 L111.893073,56.319961 L111.893073,48.3874222 L95.9081543,48.3874222 L95.9081543,56.319961 Z M143.182702,100.151997 C143.182702,108.037734 137.701235,114.430567 130.938934,114.430567 C124.176633,114.430567 118.695167,108.037734 118.695167,100.151997 L118.695167,23.796552 L143.182702,23.796552 L143.182702,100.151997 Z" id="Fill-1" fill="#BA0E82" mask="url(#mask-2)"></path>
                <text id="HIV-&amp;-STI-testing" mask="url(#mask-2)" font-family="Arial-BoldMT, Arial" font-size="32" font-weight="bold" fill="#BA0E82">
                    <tspan x="7.00993536" y="244.095608">HIV &amp; STI </tspan>
                    <tspan x="26.5724354" y="280.095608">testing</tspan>
                </text>
            </g>
        </g>
    </g>
</svg>