<?xml version="1.0" encoding="UTF-8"?>
<svg width="354px" height="354px" viewBox="0 0 354 354" version="1.1" xmlns="http://www.w3.org/2000/svg" xmlns:xlink="http://www.w3.org/1999/xlink">
    <!-- Generator: Sketch 52.3 (67297) - http://www.bohemiancoding.com/sketch -->
    <title>Icon</title>
    <desc>Created with Sketch.</desc>
    <defs>
        <polygon id="path-1" points="0 0 152.397797 0 152.397797 153.683908 0 153.683908"></polygon>
    </defs>
    <g id="Page-1" stroke="none" stroke-width="1" fill="none" fill-rule="evenodd">
        <g id="Sexual-Health-—-Birth-Control" transform="translate(-205.000000, -1202.000000)">
            <rect fill="#FFFFFF" x="0" y="0" width="1440" height="3741"></rect>
            <g id="test-tube" transform="translate(305.000000, 1302.000000)">
                <g transform="translate(0.113097, 0.000000)">
                    <mask id="mask-2" fill="white">
                        <use xlink:href="#path-1"></use>
                    </mask>
                    <g id="Clip-2"></g>
                    <path d="M149.186107,0.00051873425 L111.173886,0.00051873425 C110.284168,-0.0164261922 109.424861,0.382370681 108.789928,1.10863811 C108.154994,1.8352996 107.794781,2.8283511 107.792078,3.86553823 L107.792078,19.6069808 C107.76437,20.6615069 108.111404,21.6817491 108.751744,22.4285081 C109.390732,23.174873 110.266934,23.5799749 111.171183,23.5476614 L111.171183,40.1938842 L95.289392,40.1938842 L95.289392,23.5476614 C96.1936403,23.5799749 97.07018,23.174873 97.7088307,22.4285081 C98.349171,21.6817491 98.696205,20.6615069 98.6684964,19.6069808 L98.6684964,3.86553823 C98.6843782,2.83899094 98.3437644,1.84751571 97.7220092,1.11967201 C97.1016057,0.389857974 96.2531126,-0.0116973755 95.372518,0.00051873425 L57.3616486,0.00051873425 C56.481054,-0.0116973755 55.6325608,0.389857974 55.0121573,1.11967201 C54.3904021,1.84751571 54.0497884,2.83899094 54.0656701,3.86553823 L54.0656701,19.6069808 C54.0379615,20.6615069 54.3849955,21.6817491 55.0253358,22.4285081 C55.6639865,23.174873 56.5405262,23.5799749 57.4447745,23.5476614 L57.4447745,40.1938842 L41.5629839,40.1938842 L41.5629839,23.5476614 C42.4672323,23.5799749 43.3437719,23.174873 43.9824227,22.4285081 C44.6227629,21.6817491 44.969797,20.6615069 44.9420883,19.6069808 L44.9420883,3.86553823 C44.939385,2.8283511 44.5791725,1.8352996 43.9442388,1.10863811 C43.3093051,0.382370681 42.4499988,-0.0164261922 41.5602806,0.00051873425 L3.5480596,0.00051873425 C1.68178025,0.00051873425 0,1.69067663 0,3.86553823 L0,19.6069808 C0.0621755207,21.7526814 1.53918205,23.4751528 3.37910438,23.5476614 L3.37910438,99.5058554 C3.37910438,111.7263 11.990414,121.670607 22.4710442,121.670607 C32.9516743,121.670607 41.5629839,111.7263 41.5629839,99.5058554 L41.5629839,63.8379675 L57.4447745,63.8379675 L57.4447745,99.5058554 C57.4157142,106.93128 60.5903828,113.875153 65.8911838,117.986859 L65.8911838,130.041401 L25.6811933,130.041401 C23.814914,130.041401 22.3020889,131.80525 22.3020889,133.982082 L22.3020889,149.744804 C22.3020889,151.921242 23.814914,153.683908 25.6811933,153.683908 L126.039242,153.683908 C127.905859,153.683908 129.418346,151.921242 129.418346,149.744804 L129.418346,133.982082 C129.418346,131.80525 127.905859,130.041401 126.039242,130.041401 L86.1658102,130.041401 L86.1658102,118.490084 C91.8548703,114.469408 95.3184523,107.262297 95.289392,99.5058554 L95.289392,63.8379675 L111.171183,63.8379675 L111.171183,99.5058554 C111.171183,111.69241 119.642597,121.573667 130.094167,121.573667 C140.545737,121.573667 149.017152,111.69241 149.017152,99.5058554 L149.017152,23.5476614 C149.9214,23.5799749 150.79794,23.174873 151.43659,22.4285081 C152.076931,21.6817491 152.423965,20.6615069 152.396256,19.6069808 L152.396256,3.86553823 C152.396256,1.69067663 151.052724,0.00051873425 149.186107,0.00051873425 Z M114.550287,15.7616647 L145.638047,15.7616647 L145.638047,7.88030358 L114.550287,7.88030358 L114.550287,15.7616647 Z M60.8238789,15.7616647 L91.9102876,15.7616647 L91.9102876,7.88030358 L60.8238789,7.88030358 L60.8238789,15.7616647 Z M6.75820877,15.7616647 L38.1838795,15.7616647 L38.1838795,7.88030358 L6.75820877,7.88030358 L6.75820877,15.7616647 Z M22.4710442,113.789246 C15.6928987,113.78767 10.1849585,107.410072 10.1373132,99.5058554 L10.1373132,23.6430258 L34.8047752,23.6430258 L34.8047752,99.5058554 C34.7571298,107.410072 29.2491896,113.78767 22.4710442,113.789246 Z M41.5629839,55.9566064 L57.4447745,55.9566064 L57.4447745,48.0752453 L41.5629839,48.0752453 L41.5629839,55.9566064 Z M29.0602977,145.804123 L122.660138,145.804123 L122.660138,137.922762 L29.0602977,137.922762 L29.0602977,145.804123 Z M79.4076014,130.041401 L72.6493926,130.041401 L72.6493926,121.242649 C74.8762224,121.761243 77.1662414,121.808925 79.4076014,121.382544 L79.4076014,130.041401 Z M76.3664074,113.789246 C73.127198,113.781365 70.0251802,112.26972 67.743271,109.589663 C65.4623755,106.911576 64.1884532,103.281816 64.2029833,99.5058554 L64.2028604,23.6430258 L88.5313062,23.6430258 L88.5311832,99.5058554 C88.5457134,103.281816 87.2721289,106.911576 84.9898818,109.589663 C82.7076347,112.26972 79.6056169,113.781365 76.3664074,113.789246 Z M95.289392,55.9566064 L111.171183,55.9566064 L111.171183,48.0752453 L95.289392,48.0752453 L95.289392,55.9566064 Z M142.258943,99.5058554 C142.258943,107.340717 136.81284,113.692305 130.094167,113.692305 C123.375494,113.692305 117.929391,107.340717 117.929391,99.5058554 L117.929391,23.6430258 L142.258943,23.6430258 L142.258943,99.5058554 Z" id="Fill-1" fill="#BA0E82" mask="url(#mask-2)"></path>
                    <text id="HIV-&amp;-STI-testing" mask="url(#mask-2)" font-family="Arial-BoldMT, Arial" font-size="32" font-weight="bold" fill="#BA0E82">
                        <tspan x="6.50014344" y="242.591766">HIV &amp; STI </tspan>
                        <tspan x="26.0626434" y="278.591766">testing</tspan>
                    </text>
                </g>
            </g>
        </g>
    </g>
</svg>